<?xml version="1.0" encoding="UTF-8"?><svg id="Layer_2" xmlns="http://www.w3.org/2000/svg" viewBox="0 0 247.18 201.53"><defs><style>.cls-1{fill:#f88765;}.cls-2{fill:#ffeadb;}.cls-3{fill:#ffe8d7;}.cls-4{fill:#fc6305;}.cls-5{fill:#ff7a0e;}.cls-6{fill:#ff7a0a;}.cls-7{fill:#ff88a9;}.cls-8{fill:#ff7d22;}.cls-9{fill:#ff8b44;}.cls-10{fill:#ff8936;}.cls-11{fill:#ff7200;}.cls-12{fill:#ff7f1e;}.cls-13{fill:#ff7e1b;}.cls-14{fill:#ff7302;}.cls-15{fill:#ff7714;}.cls-16{fill:#ff7509;}.cls-17{fill:#ff7600;}.cls-18{fill:#ff7804;}.cls-19{fill:#ff8d3f;}.cls-20{fill:#ff8123;}.cls-21{fill:#ff852d;}.cls-22{fill:#ff859a;}.cls-23{fill:#ff863e;}.cls-24{fill:#ff8634;}.cls-25{fill:#ff883a;}.cls-26{fill:#ff8835;}.cls-27{fill:#da3d00;}.cls-28{fill:#e03b00;}.cls-29{fill:#df4200;}.cls-30{fill:#dc3900;}.cls-31{fill:#dc3f00;}.cls-32{fill:#dd3e00;}.cls-33{fill:#de4100;}.cls-34{fill:#e04600;}.cls-35{fill:#e04100;}.cls-36{fill:#e43f00;}.cls-37{fill:#e0642e;}.cls-38{fill:#191b18;}.cls-39{fill:#181a17;}</style></defs><g id="illustrations"><path class="cls-11" d="m158.52,2.45c1.08-1.12,2.57-1.34,3.97-1.6,2.62-.49,5.26-1.32,7.96-.35,2.83,1.01,5.62,2.05,7.79,4.32,1.7,1.78,2.64,3.94,3.34,6.21.28.92.61,1.4,1.57,1.61,2.18.47,2.17.52,3.56-1.36.18-.24.38-.47.57-.71.91.12,1.69,0,2.5-.61,1.01-.75.66.44.88.81-.04.31-.04.63-.12.93-1.74,6.67,1.57,11.51,7.18,13.74,1.95.78,4.03.89,6.14.92,2.93.05,5.24-1.09,7.23-3.12.65-.67,1.31-1.33,1.96-2,.9.09,1.77.11,2.54.8.73.66,1.64,1.2,2.73,1.14,2.51,1.43,5.29,2.38,7.56,4.22,0,.44.18.81.5,1.09,1.53,1.35,2.07,3.3,2.96,5.03.52,1.01.28,1.55-.64,2.35-.23.2-.5.37-.73.58-.76.67-1.22,1.42-.63,2.44.67,1.14.23,2.18-.28,3.22-2.98,1.85-5.96,3.69-9.38,4.66-2.9.82-5.47,2.42-8.36,3.35-3.84,1.24-7.64,2.56-11.57,3.55-4.25,1.08-8.55,1.68-12.86,2.08-6.03.56-12.1.17-18.09-.64-3.78-.51-7.52-1.44-11.23-2.37-5.53-1.39-11.08-2.7-16.38-4.89-1.65-.68-3.4-.79-5.2-.84-3.17-.09-6.01,4.5-4.58,7.29,1.14,2.23,2.68,3.92,4.6,5.38.93,1.06,2.24,1.43,3.5,1.84,2.16.7,4.43,1.12,6.52,1.98,3.74,1.54,7.52,2.9,11.54,3.49,3.88.57,7.72,1.49,11.67,1.51.42.61,1.06.56,1.68.56,1.77.02,3.54.03,5.31.05-.31.73-1.04.61-1.61.74-1.8.43-3.42.98-2.82,3.39-.79,1.57-.39,3.28-.63,4.91-.39,2.58-.68,5.14-.64,7.75,0,.2-.1.4-.18.59-.76,1.82-.28,3.72-.35,5.58-.02.48.33.76.78.81.44.06.81-.1,1.01-.54.21-.47.51-.93.63-1.42.46-1.82,1.85-2.72,3.41-3.39,1.23-.53,2.42-.22,3.6.39.98.52.94,1.45,1.31,2.29,1.08,2.48.15,4.21-1.6,5.82-.39.35-.71.79-1.12,1.1-1.47,1.12-1.93,2.56-1.81,4.38.16,2.43.54,2.85,3.06,3.46.96.23,1.5.28,2.01-.67,2.01-3.77,5.69-4.12,9.36-4.4.48-.04,1,.23,1.49.38.69.22,1.36.52,2.07.68.49.11,1.05.16,1.54.06.61-.14.51-.81.71-1.26.47-1.03,1-1.92,2.09-2.6,2.13-1.34,4.45-1.51,6.81-1.65.39-.02.79.23,1.18.34,1.31.37,2.6.76,3.62,1.73.32.3.7.36,1.15.18.85-.34,1.61-1.23,2.58-.9,1.37.46.36,1.89.9,2.74.61.96.44,2.02.44,3.06.01,3.14,0,6.28,0,9.43,0,.62-.1,1.28.63,1.62.51,0,1.02,0,1.26.59-1.65.06-3.27.12-4.91.61-2.76.83-5.46,1.85-8.34,2.31-3.56.58-6.93,2-10.58,2.27-1.62.12-3.21.7-4.79,1.15-.98.28-1.2,1.11-.56,1.89.69.83,1.43,1.59,2.65.97.48-.24,1-.47,1.49-.24,2,.95,4.12.31,6.17.54.03,2.27.96,4.45.68,6.75.85,1.66.51,3.45.58,5.2.02.62-.15,1.34.1,1.85.68,1.39.47,2.84.53,4.28.01.42-.09.89.07,1.24.84,1.79.51,3.67.54,5.52.04,2.6,0,5.2.01,7.81,0,.93.08,1.81.38,2.74.63,1.95.1,2.63-1.91,2.91q-1.97.27-2.26,2.54c-.69-.37-.61-1.02-.61-1.64,0-2.62,0-5.23-.02-7.85,0-.84.19-1.77-.11-2.49-.64-1.53-.42-3.08-.49-4.63-.04-.94-.05-1.88-.02-2.82.03-1.08-.59-1.73-1.39-2.29-.37-.25-.94-.09-1.01.31-.07.41-.11.82-.11,1.23,0,4.29,0,8.58.02,12.87,0,1.34.19,2.66.39,4,.29,1.93.88,3.89.77,5.83-.14,2.55.54,4.96.86,7.41.19,1.43.61,2.87.44,4.3-.19,1.63.7,3.03.66,4.61-.05,1.88-.01,3.77-.01,5.65-1.16.83-2.71.89-3.78,1.9-.19-.23-.51-.44-.56-.7-.99-5.19-3-10.09-4.39-15.16-.17-.64-.43-1.15-.88-1.61-.93-.95-1.8-.98-2.7-.09-1.28,1.28-1.91,2.86-1.31,4.55.44,1.25.41,2.45.42,3.69.03,2.09,0,4.18.02,6.26.01.72-.03,1.51.24,2.15.47,1.12.31,2.26.4,3.39-.44-.4-.84-1.06-1.34-1.15-1.37-.24-2.79-.24-4.19-.32-.05,0-.12.16-.17.24-.38-.23-.58-.56-.6-1.01-.02-.73.06-1.49-.12-2.18-.85-3.22-.69-6.55-1.06-9.81-.18-1.55-.69-3.02-.79-4.57-.04-.65-.59-1.08-1.07-1.49-1.01-.86-2.47-.36-2.56.96-.13,1.76-.04,3.54-.08,5.31-.02,1.03.25,2.12-.21,3.08-.48,1-.38,2.03-.4,3.06-.02,1.25-.02,2.5-.03,3.75,0,.45-.22.78-.59,1.02-.41-1.28-1.29-1.71-2.57-1.25-.51-.31-.58-.81-.59-1.35-.04-1.97-.11-3.91-.48-5.88-.32-1.7-.66-3.46-.75-5.21-.16-3.32-.13-6.62-.53-9.96-.39-3.16-.42-6.45.16-9.67.13-.73-.69-1.47-1.59-1.55-.78-.07-.67.67-.93,1.04-.45.64-.26,1.42-.26,2.14-.01,3.45-.02,6.9,0,10.36,0,.72.09,1.45.19,2.17.34,2.45.96,4.9.99,7.36.06,4.38.58,8.68,1.38,12.97-.25.56-.51.58-.77,0-.81-2.21-1.88-4.31-2.52-6.61-.39-1.41-.57-2.58.26-3.81.63-.92.55-1.82-.3-2.51-1.01-.82-1.02-1.9-1.22-3.06-.31-1.85-.57-3.67-.62-5.56-.04-1.58-1.21-2.8-2.79-2.85-3.14-.11-6.33-.36-9.41.09-2.19.32-4.34.38-6.51.48-.52.03-1.07-.08-1.57.04-3.04.68-6.11,1.02-9.21,1.32-2.97.29-5.91.95-8.89,1.34-2.97.39-5.89,1.18-8.92,1.07-.77-.03-1.42.24-2.11.49-.13.05-.34-.11-.51-.18.1-.18.17-.4.31-.52.24-.19.53-.32.8-.48,4.58-2.75,8.42-6.43,12.5-9.81,1.38-1.14,2.25-2.74,3.46-4.02,3.62-3.81,6.29-8.28,8.82-12.82,2.49-4.46,4.16-9.26,5.58-14.17,1.22-4.21,1.45-8.56,2.1-12.84.51-3.33-.35-6.65-.79-9.92-.46-3.46-1.53-6.83-2.85-10.13-3.33-8.28-8.62-14.9-15.93-19.95-4.25-2.94-8.99-4.79-13.92-6.15-3.61-1-7.3-1.61-11.09-1.35-1.46.1-2.94-.06-4.4.05-2.38.18-4.83.16-7.09.79-6.19,1.74-12.39,3.48-18.16,6.44-2.33,1.2-4.33,2.86-6.58,4.16-3.9,2.26-7.3,5.17-10.39,8.45-1.72,1.83-3.69,3.45-5.23,5.42-2.48,3.19-4.92,6.44-6.92,9.97-1.75,3.09-3.17,6.33-4.51,9.61-.62,1.53-.16,2.23,1.68,2.89,0,.52.03,1.04-.02,1.56-.1.98-.84,1.8-.35,2.97.31.73-.71,1.38-1.15,2.04-.4.6-1.11.32-1.68.01-.71-.39-1.18-.03-1.57.51-.36.5-.65,1.05-1.03,1.53-1.68,2.13-2.85,4.51-3.63,7.1-.57,1.21-1.02,2.45-1.26,3.77-1.42,1.69-2.02,3.76-2.47,5.83-.29,1.34-.49,2.69-.14,4.17.26,1.11,1.06,1.74,1.42,2.7.36.96.11,1.63-.9,1.73-.62.06-1.25.09-1.86.01-1.05-.12-1.8.34-2.44,1.08-.4.47-.76.96-1.14,1.45.03.93.05,1.82.39,2.75,1.22,3.34,2.89,6.45,4.66,9.51.26.45.65.83.56,1.4-.03.17-.17.33-.3.47-.03.03-.22-.03-.28-.1-.21-.23-.43-.45-.59-.72-2.65-4.25-4.63-8.77-5.89-13.64-1.44-5.54-2.48-11.11-2.33-16.85.03-1.15,0-2.3,0-3.46,0-.52-.08-1.07.03-1.57.67-3.14,1.22-6.29,1.26-9.52,0-.2.07-.41.13-.61.81-2.88,1.5-5.81,2.47-8.64,1.08-3.13,2.3-6.23,3.67-9.24,1.15-2.52,2.3-5.08,4.16-7.23.74-.85,1.18-1.95,1.81-2.9,1.99-3.03,3.82-6.15,6.26-8.91,1.37-1.54,2.77-3.1,4.05-4.74,1.66-2.13,3.21-4.35,5.17-6.22,3.54-3.39,6.7-7.17,10.69-10.11,1.84-1.35,3.4-3.08,5.25-4.41,3.28-2.35,6.76-4.4,10.39-6.16,1.12-.54,2.29-.97,3.45-1.42.15-.06.38.05.57.08-.04.17-.02.44-.13.5-2.33,1.4-4.23,3.35-6.35,5.01-2.33,1.82-4.27,3.98-6.4,5.97-.2.18-.48.5-.02.71.14.07.42-.02.57-.13,2.51-1.83,5-3.71,7.53-5.51.93-.66,1.65-1.48,2.43-2.3,2.14-2.25,4.58-4.23,6.94-6.28.38-.33.93-.46,1.39-.71,1.92-1.04,3.95-1.77,6.03-2.45,1.68-.55,3.34-1.18,5.08-1.28.85-.05,1.51-.69,2.37-.48,0,1.08-1.08,1.36-1.53,2.1-.27.44-.53.89-.76,1.36-.32.64.11.97.59,1.2.27.13.61.16.91.16,4.92.01,9.84.01,14.77,0,.17,0,.45-.1.5-.22.06-.15,0-.43-.13-.56-.63-.7-1.27-1.4-1.97-2.03-.8-.72-1.42-1.59-1.71-2.58-.3-1.01-.67-1.96-1.16-2.89-.39-.73,0-1.33.59-1.52,1.08-.34,2.09-1.01,3.28-.89,1.09.11,2.06-.23,2.99-.72.56-.3,1.16-.41,1.76-.58,2.49-.7,5.03-1.1,7.56-1.61.92-.19,1.08.24,1.14.95.03.3.02.76.2.87.42.27.73-.15.99-.43.63-.69,1.1-1.62,1.86-2.06.86-.5,2-.48,2.96-.85,1.96-.76,4.06-.74,6.08-1.15,1.11-.22,2.15-.89,3.33-.7,1.52.24,2.9-.3,4.27-.75,1.58-.52,3.16-.92,4.81-1.16,1.73-.26,3.47-.55,5.15-1,2.39-.64,2.46-.85,1.76-3.2-.11-.39-.3-.79-.57-1.08-1.76-1.9-2.15-4.18-1.91-6.65.06-.62,0-1.26,0-1.88.61-1.63,1.21-3.26,1.85-4.88.15-.38.38-.74.65-1.04,2-2.22,3.72-4.69,5.99-6.68.61-.53,1.32-1.03,1.57-1.88Zm19.54,14.69c0-3.38-1.31-7.3-3.26-9.81-.31-.4-.7-.81-1.14-1.05-4.66-2.54-11.19-2.97-16.01.7-4.1,3.12-5.68,8.09-3.95,12.84,1.08,2.96,3.15,5.25,5.79,6.83,1.85,1.1,4,1.77,6.29,1.53,4.62-.49,8.48-2.15,10.65-6.59.14-.28.38-.5.56-.76.79-1.16,1.21-2.43,1.07-3.69Z"/><path class="cls-5" d="m148.47,16.93c0,.63.06,1.26,0,1.88-.24,2.47.16,4.75,1.91,6.65.27.29.46.7.57,1.08.69,2.35.63,2.56-1.76,3.2-1.69.45-3.42.74-5.15,1-1.64.25-3.23.64-4.81,1.16-1.37.45-2.75,1-4.27.75-1.18-.19-2.22.48-3.33.7-2.02.41-4.12.39-6.08,1.15-.96.37-2.1.35-2.96.85-.76.44-1.23,1.37-1.86,2.06-.26.28-.57.7-.99.43-.18-.12-.17-.57-.2-.87-.07-.71-.22-1.14-1.14-.95-2.52.51-5.07.91-7.56,1.61-.6.17-1.2.28-1.76.58-.93.49-1.9.84-2.99.72-1.19-.12-2.2.55-3.28.89-.6.19-.98.78-.59,1.52.48.92.86,1.88,1.16,2.89.3.99.91,1.86,1.71,2.58.7.63,1.33,1.33,1.97,2.03.12.13.19.41.13.56-.05.12-.32.22-.5.22-4.92,0-9.84,0-14.77,0-.31,0-.64-.03-.91-.16-.49-.23-.91-.56-.59-1.2.23-.46.49-.91.76-1.36.46-.74,1.53-1.03,1.53-2.1-.85-.21-1.52.43-2.37.48-1.74.1-3.4.74-5.08,1.28-2.08.68-4.11,1.41-6.03,2.45-.46.25-1.01.38-1.39.71-2.35,2.05-4.79,4.02-6.94,6.28-.78.82-1.49,1.64-2.43,2.3-2.54,1.8-5.02,3.68-7.53,5.51-.15.11-.42.2-.57.13-.46-.21-.18-.53.02-.71,2.13-1.99,4.07-4.15,6.4-5.97,2.12-1.66,4.02-3.6,6.35-5.01.11-.06.09-.33.13-.5-.19-.03-.41-.14-.57-.08-1.16.45-2.33.88-3.45,1.42-3.63,1.76-7.11,3.81-10.39,6.16-1.85,1.33-3.42,3.05-5.25,4.41-3.98,2.94-7.14,6.72-10.69,10.11-1.96,1.87-3.51,4.09-5.17,6.22-1.28,1.64-2.68,3.19-4.05,4.74-2.44,2.75-4.27,5.87-6.26,8.91-.63.95-1.07,2.05-1.81,2.9-1.86,2.15-3,4.71-4.16,7.23-1.38,3.01-2.6,6.11-3.67,9.24-.97,2.83-1.66,5.76-2.47,8.64-.06.2-.12.4-.13.61-.03,3.22-.58,6.38-1.26,9.52-.11.5-.03,1.04-.03,1.57,0,1.15.03,2.3,0,3.46-.15,5.75.89,11.32,2.33,16.85,1.26,4.87,3.25,9.39,5.89,13.64.16.26.38.49.59.72.06.07.25.13.28.1.12-.14.27-.3.3-.47.1-.57-.29-.95-.56-1.4-1.77-3.06-3.45-6.17-4.66-9.51-.34-.93-.36-1.82-.39-2.75.54,0,1.03-.12,1.48-.44,1.48-1.05,3.2-.97,4.84-.77,1.74.21,3.54.57,4.17,2.65.32,1.05,1.15,1.72,1.91,2.44.32.3.75.58,1.12.35,1.07-.67,2.31-.16,3.35-.53,1.64-.59,2.64.24,3.47,1.31.88,1.15,1.6,2.43,2.26,3.72.71,1.39,1.49,2.7,2.56,3.84,1.37,2.96,3.88,5.1,5.66,7.76.22.33.73.42,1.07,0,.32-.4.59-.85.92-1.25,1.44-1.8,3.36-2.32,5.59-2.12.88.08,1.58.51,2.31.88.69.36,1.12.33,1.5-.41.21-.42.5-1.02,1.15-.67.49.26.67.78.65,1.34-.03.83.21,1.71-.23,2.47-.94,1.63.1,3.01.55,4.45.14.44.67.78,1.08,1.1.5.4.96,0,1.45-.14.59-.18,1.31-.07,1.82-.35,1.81-.99,3.23-.23,4.55.9,1.24,1.06,2.55,1.98,3.56,3.39.99,1.4,2.24,2.73,3.88,3.57.94.48,1.64,1.28,1.63,2.49-.01,1.01.7,1.1,1.5,1.13,3.11.08,6.25-.34,9.3.61.29.09.62.02.94.02,2.91-.08,5.74.99,8.67.67.19-.02.43.03.6.14,1.06.65,2.23.4,3.37.45,3.13.15,6.19-.21,9.22-1.05,1.81-.5,3.77-.46,5.57,0,1.14.29,2.24.4,3.38.41,3.56.01,7.11.02,10.67,0,.83,0,1.64-.03,2.48-.18,2.64-.47,5.25-1.16,7.96-1.07,2.62.09,5.19-.08,7.63-1.12.73-.31,1.75.24,2.22-.79,1.14,0,2.28.02,3.43.02.63,0,1.21.14,1.8.4,1.84.82,1.98,1.21,1.05,3.36h.02c-2.92.57-5.84,1.09-8.75,1.72-3.7.8-7.54,1.22-11.33,1.32-2.61.07-5.11.7-7.69.76-.86.02-1.59.43-2.21,1.01-.33.31-.11,1.27.32,1.33.92.13,1.85.18,2.77.26-.6.54-1.36.47-2.08.49-5.34.14-10.67.23-15.99-.4-1.76-.21-3.56-.2-5.34-.15-5.87.15-11.68-.88-17.56-.74-2.21.06-4.4.13-6.49.84-5.02,1.7-10.25,2.14-15.45,2.17-6.44.04-12.67-1.29-18.14-5.02-.89-.61-1.83-.94-2.89-1.1-5.3-.77-10.37-2.35-15.3-4.4-4-1.66-7.56-3.98-10.77-6.91-2.79-2.55-5.23-5.42-7.9-8.05-2.05-2.01-3.89-4.12-5.24-6.59-1.49-2.73-3.08-5.44-4.03-8.44.15-.85-.13-1.6-.37-2.41-.85-2.86-2.13-5.63-2.08-8.7-1.23-2.08,0-4.59-1.18-6.68,0-4.8,0-9.61,0-14.41.81-1.46.6-3.05.54-4.59-.09-2.21.52-4.32.9-6.43.88-4.91,2.95-9.49,5.13-13.92,1.55-3.15,3.23-6.25,4.63-9.48,2.45-5.65,6.17-10.53,9.49-15.66.7-1.08,2-1.92,1.8-3.49,1.55-1.96,3.24-3.78,5.1-5.46,2.01-1.81,3.72-3.92,5.74-5.73,2.88-2.58,5.97-4.88,9-7.26.23-.18.57-.22.87-.32.21,0,.45.07.62-.01,4.02-1.97,8.13-3.79,12.01-6,3.17-1.81,6.45-3.4,9.71-5.02,1.75-.87,3.63-1.61,5.53-2.03,3.15-.7,6.15-1.85,9.17-2.89,5.09-1.76,10.11-3.7,15.13-5.65,3.19-1.24,6.6-1.74,9.8-2.89,2.75-.98,5.63-1.43,8.47-1.75,2.35-.27,4.67-1.13,7.1-.77.29.04.6-.14.91-.18,2.76-.36,5.48-1.09,8.29-1.03,1.76.04,3.33-.29,4.54-1.63.71-.78,1.56-.94,2.54-.92,1.78.04,3.56-.02,5.34.02.84.02,1.41-.26,1.7-1.04.18-.48.32-.98.48-1.47,1.07-1.3,1.27-2.84,1.24-4.45,0-.67-.21-1.44.62-1.85Z"/><path class="cls-6" d="m227.06,42.11c.51-1.04.95-2.08.28-3.22-.6-1.01-.13-1.77.63-2.44.23-.2.49-.38.73-.58.93-.8,1.17-1.34.64-2.35-.89-1.73-1.43-3.67-2.96-5.03-.32-.28-.5-.65-.5-1.09,3.64,1.86,6.82,4.31,9.02,7.79.87,1.37,1.81,2.61,3.01,3.68-.56.21-.77.53-.57,1.18.95,3.13,2.59,6,3.18,9.28.25,1.38.44,2.83.85,4.22.38,1.29.52,2.86-.63,4.13-.86.95-.68,2.25-.36,3.29.98,3.18.26,6.41.49,9.6-.92,2.19-.61,4.5-.59,6.77.04,3.95-.41,7.8-1.69,11.58-.43,1.26-.72,2.56-1.31,3.78-.21.43-.12,1.02-.16,1.53-1.69,3.92-4.06,7.33-7.29,10.15-.6.52-1.34,1-1.47,1.91-1.53.9-2.63,2.39-4.29,3.11-.3,0-.65-.1-.91.01-2.61,1.19-4.75,3.01-6.72,5.05-.12.13-.1.39-.14.59-.39-.25-.78-.5-1.17-.75-.24-.59-.75-.58-1.26-.59-.24-1.71.26-3.31.88-4.85.37-.93.51-1.78.05-2.7-.59-1.18-.25-2.12.56-3.14,1.37-1.71,2.18-3.73,2.98-5.77.36-.91.12-1.26-.59-1.75-2.22-1.52-2.21-1.55-1.27-4,.19-.49.4-.97.69-1.4.43-.65.61-1.39.44-2.1-.52-2.25-.77-4.47.4-6.61-.77-1.31-.06-2.4.55-3.49.33-.59.35-1.2.32-1.82-.08-1.28.12-2.48.79-3.6.21-.35.44-.77.43-1.15-.1-2.3,1.07-4.46.7-6.8-.08-.49,0-1.08.23-1.52.56-1.1.31-2.26.37-3.39.38-.71,1.15-.86,1.78-1.18,2.77-1.42,5.56-2.81,8.37-4.17,2.62-1.27,4.55-3.12,5.62-5.92.99-2.62.45-5.33-1.72-6.98-.32-.24-.72-.5-1.1-.51-1.44-.03-2.89-.3-4.31.32-.94.41-1.96.62-2.95.92Z"/><path class="cls-15" d="m218.81,135.73c.34,2.57.67,5.15,1.02,7.72.41,3,.46,6.03.38,9.04-.09,3.21-.11,6.42-.52,9.65-.48,3.71.26,7.47.65,11.19.35,3.33.41,6.64.47,9.97.03,1.58-.48,2.91-1.76,3.78-.94.64-1.56,1.7-2.72,2.03-.24-2.35-.28-4.75-.81-7.04-.31-1.34-.31-2.65-.45-3.98-.15-1.43-.5-2.84-.57-4.26-.11-2.09-.85-4.01-1.34-6-.18-.75-.75-1.24-1.35-1.65-.69-.48-1.78-.18-2.13.58-.13.27-.15.6-.25.88-.8,2.3-.57,4.7-.6,7.06-.53-.03-1.02-.09-1.24-.71-.94-2.67-.96-5.5-1.19-8.24-.21-2.58-1.09-5.09-.77-7.71.02-.19-.03-.43-.13-.6-.66-1.06-.33-2.24-.47-3.36-.24-1.93.46-3.14,2.33-3.85.85-.33,1.54-.31,2.36-.05,3.47,1.14,5.98,3.14,6.74,6.95.24,1.2.85,2.32,1.35,3.46.1.23.45.48.7.5.41.03.36-.39.36-.66,0-5.54.01-11.07,0-16.61,0-1.34.23-2.71-.93-3.82-.3-.29-.28-.97-.31-1.48-.04-.64-.06-1.26-.55-1.73-.57-.55-.54-1.3-.78-1.97-.78-2.28-.68-4.68-1.12-7.01-.36-1.9-1.08-3.82-.7-5.83l.3-.04h.31c-.19,1.5.49,2.82.88,4.19.62,2.16,1.77,4.18,1.73,6.52.76.89.17,2.27,1.12,3.09Z"/><path class="cls-21" d="m146.61,23.23c-.16.49-.3.98-.48,1.47-.29.78-.86,1.06-1.7,1.04-1.78-.04-3.56.02-5.34-.02-.99-.02-1.83.13-2.54.92-1.21,1.34-2.78,1.67-4.54,1.63-2.8-.06-5.53.67-8.29,1.03-.31.04-.62.22-.91.18-2.43-.36-4.75.5-7.1.77-2.83.33-5.71.77-8.47,1.75-3.21,1.14-6.61,1.65-9.8,2.89-5.02,1.94-10.04,3.89-15.13,5.65-3.02,1.04-6.02,2.19-9.17,2.89-1.9.42-3.78,1.16-5.53,2.03-3.26,1.62-6.53,3.2-9.71,5.02-3.88,2.22-7.99,4.03-12.01,6-.17.08-.41.01-.62.01,1.58-1.65,3.6-2.67,5.5-3.87,2.6-1.63,5.2-3.26,7.8-4.9.21-.02.45.02.61-.08,3.15-1.84,6.45-3.36,9.81-4.77,4.02-1.69,7.96-3.64,12.07-5.04,6.97-2.37,13.93-4.83,21.02-6.85,5.49-1.56,10.97-3.14,16.56-4.29,1.18-.24,2.54.04,3.57-.88,1.68.14,3.26-.44,4.87-.75,3.34-.65,6.78-.41,10.08-1.34,2.9-.5,5.81-.83,8.75-.5.23,0,.45.02.68.03Z"/><path class="cls-27" d="m215.08,121.93h-.31s-.3.04-.3.04c-1.35.44-2.64,1.14-4.11,1.16-2.37.02-4.75.12-7.11,0-2.39-.12-4.63.96-7.01.7-2.05-.24-4.17.41-6.17-.54-.49-.23-1.01,0-1.49.24-1.22.61-1.97-.14-2.65-.97-.64-.78-.43-1.61.56-1.89,1.58-.45,3.17-1.04,4.79-1.15,3.65-.27,7.02-1.69,10.58-2.27,2.87-.47,5.58-1.49,8.34-2.31,1.64-.49,3.26-.55,4.91-.61.39.25.78.5,1.17.75-.01.21.03.41.14.6,0,1.03.02,2.06.01,3.09,0,.52,0,1.03.47,1.39.03,1.24-1.09,1.32-1.82,1.79Z"/><path class="cls-20" d="m237.1,94.24c.05-.52-.05-1.1.16-1.53.59-1.22.88-2.52,1.31-3.78,1.27-3.78,1.72-7.62,1.69-11.58-.02-2.27-.32-4.58.59-6.77-.22-3.19.5-6.42-.49-9.6-.32-1.03-.49-2.34.36-3.29,1.15-1.27,1.02-2.85.63-4.13-.42-1.4-.61-2.84-.85-4.22-.59-3.28-2.23-6.15-3.18-9.28-.2-.66.01-.97.57-1.18.05.02.09.04.14.07,1.1.53,1.99,1.41,2.51,2.52.3.63.56,1.28.96,1.85,0,.72-.13,1.51.5,2.05.86.75.97,1.87,1.22,2.81.8,3.08,1.42,6.21,2,9.34.16.89-.03,1.83-.19,2.76-.2,1.23-.62,2.55-.07,3.83.11.27.23.64.14.89-.92,2.43-.31,4.95-.44,7.42-.09,1.66.13,3.35-.92,4.81-.39.54-.34,1.18-.35,1.81-.01,1.03.01,2.04-.46,3.05-.28.6-.09,1.43-.11,2.16v-.03c-.72.16-.81.87-1.04,1.39-.37.83-.57,1.72-.88,2.58-.83,2.29-1.82,4.48-3.78,6.07Z"/><path class="cls-25" d="m24.57,75.26c.2,1.56-1.1,2.41-1.8,3.49-3.32,5.13-7.04,10.01-9.49,15.66-1.4,3.24-3.09,6.33-4.63,9.48-2.18,4.43-4.24,9.01-5.13,13.92-.38,2.11-.99,4.23-.9,6.43.06,1.54.27,3.14-.54,4.59,0,4.8,0,9.61,0,14.41,1.18,2.09-.05,4.6,1.18,6.68-.05,3.08,1.24,5.84,2.08,8.7.24.82.51,1.57.37,2.41-1.75-2.21-2.1-4.98-2.82-7.55-.93-3.3-2.02-6.58-2.4-10.02-.05-.41-.23-.81-.24-1.23-.2-5.85-.51-11.7.3-17.54.33-2.37.32-4.79.84-7.14.16-.71.26-1.44.45-2.14,1.98-7.5,4.52-14.72,8.9-21.25,3.78-5.64,7.39-11.4,11.68-16.68.65-.8,1.22-1.71,2.17-2.22Z"/><path class="cls-30" d="m181.81,193.54c-.09-1.13.07-2.27-.4-3.39-.27-.64-.23-1.43-.24-2.15-.03-2.09,0-4.18-.02-6.26-.02-1.24.01-2.44-.42-3.69-.59-1.7.03-3.28,1.31-4.55.9-.9,1.77-.86,2.7.09.45.46.71.97.88,1.61,1.39,5.07,3.4,9.97,4.39,15.16.05.26.37.47.56.7-.02,1.29.64,2.68-.61,3.77l-.27.08-.28-.03c-.71-.03-1.32-.58-2.08-.32-1.48.49-2.8.29-4.01-.8-.31-.28-.99-.15-1.49-.21Z"/><path class="cls-32" d="m207.65,192.4c-.22,1.14-1.11,1.17-2,1.21-.72-.03-1.44-.02-2.15-.09-1-.1-1.39-.48-1.56-1.57-.08-.5-.03-1.03-.04-1.54,0-.73.17-1.53-.06-2.17-.7-1.92-.52-3.89-.58-5.85-.02-.62,0-1.28-.23-1.83-.39-.91-.35-1.83-.35-2.76,0-3.33.02-6.66.03-9.99.2-.03.42-.03.61-.09.67-.21,1.31-.81,2.04-.43.83.43,1.54,1.05,1.69,2.08.14.91.48,1.77.71,2.66.59,2.34.52,4.69.57,7.05.01.7-.19,1.48.6,1.94-.31,3.83.41,7.6.74,11.39Z"/><path class="cls-29" d="m194.35,189.16c0-1.88-.04-3.77.01-5.65.05-1.58-.85-2.98-.66-4.61.17-1.43-.25-2.87-.44-4.3-.32-2.45-1-4.87-.86-7.41.11-1.94-.48-3.9-.77-5.83-.2-1.34-.38-2.66-.39-4-.03-4.29-.03-8.58-.02-12.87,0-.41.05-.83.11-1.23.06-.4.64-.56,1.01-.31.81.55,1.43,1.2,1.39,2.29-.03.94-.02,1.88.02,2.82.06,1.55-.16,3.1.49,4.63.3.72.11,1.65.11,2.49.01,2.62.02,5.23.02,7.85,0,.62-.08,1.28.61,1.64,0,.41,0,.82.01,1.24-.4,2.54.4,4.98.76,7.42.59,4.01,1.2,8,1.14,12.06-.03,1.67.02,3.35.03,5.02,0,1.05,0,2.11,0,3.16-1.41.82-1.53.78-2-.61-.01-1.29-.81-2.46-.59-3.79Z"/><path class="cls-13" d="m218.31,23.19c-1.09.06-2-.48-2.73-1.14-.77-.7-1.64-.71-2.54-.8.46-.92,1.22-1.8,1.34-2.76.27-2.26.38-4.58-.11-6.83-.66-3.01-2.78-5.07-5-6.97-1.84-1.58-4.13-1.85-6.48-1.68-.62.05-1.25.05-1.87.13-2.75.37-5.14,1.41-7.17,3.39-1.29,1.26-2.08,2.82-3.1,4.24-.22-.37.13-1.56-.88-.81-.81.6-1.59.73-2.5.61.75-1.71,1.44-3.45,2.28-5.11.51-1.02,1.23-1.93,2.34-2.43.57-.26,1.12-.55,1.65-.88,4.66-2.89,9.49-2.57,14.39-.78,2.75,1.01,4.79,2.81,6.2,5.41,1.6,2.95,2.71,6.06,3.46,9.32.16.7.42,1.39.64,2.08.02,1.67.04,3.34.07,5Z"/><path class="cls-33" d="m208.83,174.69c.04-2.37-.2-4.76.6-7.06.1-.29.12-.61.25-.88.35-.75,1.44-1.06,2.13-.58.6.41,1.16.9,1.35,1.65.49,1.99,1.24,3.91,1.34,6,.07,1.43.42,2.84.57,4.26.14,1.32.14,2.63.45,3.98.53,2.29.57,4.68.81,7.04-.83.92-1.98,1.13-3.1,1.4-.31-.02-.62-.04-.92-.08-1.42-.18-1.45-.18-1.6-1.32-.44-3.33-.85-6.66-1.27-10,0-1.03-.01-2.06,0-3.09,0-.54-.08-1.02-.6-1.31Z"/><path class="cls-31" d="m168.6,190.44c.37-.24.59-.57.59-1.02,0-1.25,0-2.5.03-3.75.02-1.03-.07-2.06.4-3.06.46-.97.19-2.05.21-3.08.04-1.77-.05-3.55.08-5.31.09-1.32,1.54-1.82,2.56-.96.48.4,1.02.84,1.07,1.49.1,1.55.62,3.01.79,4.57.37,3.27.21,6.59,1.06,9.81.18.69.1,1.45.12,2.18.01.46.22.78.6,1.01-.06,1.34.44,2.86-1.23,3.65-.89.42-1.71-.53-2.6-.15-.8.35-1.6.43-2.42.1-.38-1.84-1.5-3.5-1.25-5.48Z"/><path class="cls-28" d="m163.62,191.61c-.8-4.29-1.32-8.59-1.38-12.97-.03-2.46-.66-4.9-.99-7.36-.1-.72-.18-1.45-.19-2.17-.02-3.45-.02-6.9,0-10.36,0-.72-.18-1.5.26-2.14.26-.37.15-1.11.93-1.04.89.08,1.72.82,1.59,1.55-.58,3.22-.54,6.51-.16,9.67.41,3.33.37,6.64.53,9.96.09,1.75.43,3.51.75,5.21.37,1.98.44,3.91.48,5.88.01.54.08,1.04.59,1.35,0,1.88.06,3.75.63,5.57q-1.95.06-2.57-1.7c.13-.58.11-1.11-.48-1.46Z"/><path class="cls-34" d="m132.89,199.32c-.93-.08-1.86-.14-2.77-.26-.43-.06-.65-1.02-.32-1.33.62-.58,1.35-.99,2.21-1.01,2.58-.06,5.09-.69,7.69-.76,3.79-.1,7.63-.52,11.33-1.32,2.91-.63,5.84-1.16,8.75-1.73-.18.63-.66.95-1.19,1.28-.92.56-1.88,1.08-2.58,1.93-2.08,1.07-4.38,1.32-6.62,1.7-2.36.39-4.77.48-7.16.7-3.11.28-6.23.54-9.35.81Z"/><path class="cls-19" d="m242.81,84.24c.02-.73-.17-1.55.11-2.16.47-1.01.45-2.01.46-3.05,0-.63-.04-1.27.35-1.81,1.06-1.46.84-3.15.92-4.81.13-2.47-.48-4.99.44-7.42.09-.25-.02-.61-.14-.89-.54-1.29-.13-2.6.07-3.83.15-.93.35-1.88.19-2.76-.58-3.13-1.2-6.26-2-9.34-.25-.95-.35-2.06-1.22-2.81-.63-.54-.49-1.33-.5-2.05,1.34.55,1.48,1.89,1.92,3,1.1,2.81,1.66,5.78,2.25,8.72.9,4.48,1.72,8.98,1.45,13.58-.32,5.51-1.2,10.88-4.32,15.63Z"/><path class="cls-10" d="m237.1,94.24c1.96-1.59,2.96-3.78,3.78-6.07.31-.85.51-1.75.88-2.58.23-.52.32-1.22,1.06-1.39-.33,4.09-1.43,7.99-3.41,11.57-2.57,4.64-5.99,8.48-11.07,10.52.13-.91.87-1.39,1.47-1.91,3.23-2.81,5.6-6.23,7.29-10.15Z"/><path class="cls-24" d="m145.96,22.94c.36-2.56.6-5.13,1.11-7.67.93-4.68,3.84-7.9,7.35-10.76.24-.2.46-.42.68-.65.77-.79,1.79-1.28,2.89-1.37l.52-.04c-.25.86-.96,1.35-1.57,1.88-2.27,1.99-3.99,4.46-5.99,6.68-.27.3-.5.65-.65,1.03-.64,1.62-1.24,3.26-1.85,4.89-.82.41-.62,1.18-.62,1.85.02,1.61-.17,3.15-1.24,4.45l-.64-.3Z"/><path class="cls-15" d="m209.44,179.1c.42,3.33.83,6.67,1.27,10,.15,1.15.18,1.15,1.6,1.32.31.04.61.05.92.08-1.7,1.12-3.8,1.03-5.58,1.91-.33-3.79-1.04-7.56-.74-11.39-.17-1.6.23-2.01,1.91-1.91.2.01.41,0,.61,0Z"/><path class="cls-1" d="m215.08,121.93c.73-.47,1.84-.55,1.82-1.79.75,0,1.15.49,1.29,1.11.25,1.1.53,2.23.55,3.34.08,3.71.05,7.43.07,11.14-.96-.82-.36-2.2-1.12-3.09.04-2.34-1.1-4.36-1.73-6.52-.4-1.37-1.08-2.69-.88-4.19Z"/><path class="cls-12" d="m174.87,195.97c1.67-.79,1.18-2.32,1.23-3.65.06-.08.12-.25.17-.24,1.4.08,2.82.08,4.19.32.5.09.9.75,1.34,1.15.51.06,1.18-.07,1.49.21,1.21,1.09,2.53,1.29,4.01.8.76-.25,1.38.29,2.08.32-.67.68-1.56.53-2.37.55-3.55.06-7.11-.24-10.61.63-.48.12-1.03-.04-1.55-.07Z"/><path class="cls-23" d="m196.93,193.56c0-1.05,0-2.11,0-3.16.37-.33.93-1.01,1.09-.92,1.23.63,2.78-.11,3.88.93.01.51-.04,1.04.04,1.54.17,1.09.56,1.47,1.56,1.57.71.07,1.43.06,2.15.09-2.07.91-4.21.71-6.3.21-.82-.19-1.6-.3-2.42-.26Z"/><path class="cls-8" d="m166.67,194.76c-.57-1.82-.64-3.69-.63-5.57,1.28-.46,2.15-.04,2.57,1.25-.25,1.98.87,3.64,1.25,5.48-1.06-.39-2.12-.77-3.18-1.16Z"/><path class="cls-26" d="m194.35,189.16c-.22,1.33.58,2.5.59,3.79-.63.32-1.37.53-1.87.99-.92.86-1.95,1.01-3.11.88,1.24-1.09.59-2.48.61-3.77,1.07-1.01,2.62-1.07,3.78-1.9Z"/><path class="cls-37" d="m156.01,196.12c.7-.86,1.66-1.38,2.58-1.93.53-.32,1.01-.65,1.19-1.28h-.02c1.36.36,2.16-.62,3.09-1.3.26.58.51.56.77,0,.59.34.61.88.48,1.46-.48-.11-.97-.41-1.42.06-.21.22-.4.47-.61.68-1.69,1.64-3.62,2.62-6.05,2.31Z"/><path class="cls-9" d="m216.42,115.66c-.11-.19-.16-.39-.14-.6.04-.2.02-.46.14-.59,1.97-2.04,4.11-3.86,6.72-5.05.25-.11.6-.01.91-.01-1.15,1.65-3.07,2.4-4.48,3.77-.96.93-2.1,1.66-3.15,2.48Z"/><path class="cls-16" d="m42.86,166.53c-1.07-1.14-1.85-2.45-2.56-3.84-.66-1.29-1.38-2.57-2.26-3.72-.82-1.08-1.82-1.9-3.47-1.31-1.03.37-2.28-.14-3.35.53-.37.23-.8-.04-1.12-.35-.75-.72-1.59-1.38-1.91-2.44-.63-2.08-2.44-2.44-4.17-2.65-1.64-.2-3.36-.27-4.84.77-.44.31-.94.44-1.48.44.38-.48.74-.98,1.14-1.45.64-.74,1.39-1.21,2.44-1.08.61.07,1.25.05,1.86-.01,1.02-.1,1.27-.76.9-1.73-.36-.95-1.16-1.59-1.42-2.7-.35-1.48-.15-2.83.14-4.17.45-2.08,1.05-4.14,2.47-5.83.55.27.64.76.63,1.3-.01,1.46,0,2.92,0,4.39,0,.74.02,1.45.47,2.1.23.33.32.81.82.77.55-.04.58-.53.58-.93.02-2.3.02-4.59.02-6.89,0-1.15,0-2.3-.02-3.45,0-.83-.56-1.02-1.24-1.06.77-2.59,1.95-4.97,3.63-7.1.38-.48.67-1.04,1.03-1.53.39-.54.86-.9,1.57-.51.57.31,1.28.59,1.68-.01.44-.66,1.46-1.3,1.15-2.04-.5-1.17.24-1.99.35-2.97.05-.51.02-1.04.02-1.56.69-1.39,1.52-2.74,2.04-4.19,1.32-3.75,3.58-6.97,5.53-10.37,2.14-3.72,5.34-6.58,7.89-9.96.25-.33.55-.68.9-.85,1.44-.71,2.43-1.94,3.54-3.02,3.06-2.99,6.57-5.34,10.29-7.42.89.49.57,1.15.33,1.88-.9,2.65-1.76,5.3-1.63,8.18.06,1.22.44,2.24,1.09,3.19,2.02,2.98,9.45,4.84,12.13.91,6.22-6.22,12.44-12.44,18.65-18.66.44-.44,1.01-.85,1.24-1.4.57-1.33,1.71-2.03,2.74-2.87,1.28-.3,2.36.6,3.62.6,2.9.01,5.61,1,8.33,1.9-.89,1.57-1.5,3.18-1.27,5.05.13,1.03,0,2.09.03,3.14.06,1.58.36,3.11,1.52,4.29,1.18,1.2,1.45,2.72,1.6,4.27.3,3.04-.34,6-.96,8.94-.35,1.68-.22,3.32-.23,4.98,0,.16.19.37.35.48.31.21.68.07.84-.16,1.36-1.9,2.51-3.9,1.64-6.35-.92-2.62-.17-5.13.35-7.66.09-.46.51-.6.96-.64.66-.06,1.23.1,1.72.57,1.07,1.01,1.26,2.19,1.15,3.64-.21,2.79-.5,5.62.19,8.4.48,1.95.31,2.47-1.43,3.64-1.98,1.33-3.97,2.64-5.99,3.89-.89.55-1.45,1.5-2.47,1.91-1.34.54-2.68,1.11-3.93,1.83-1.3.76-1.67,2.37-2.77,3.35-.47.42-.87.91-1.34,1.32-2.03,1.79-4.19,3.41-6.06,5.4-2.44,2.59-5.14,4.95-7.49,7.61-1.68,1.9-3.51,2.8-6.02,2.43-1.65-.24-3.11.3-4.26,1.51-.61.63-1.36.84-2.16,1.13-2.43.88-4.84,1.87-7.18,2.97-4.44,2.06-8.75,4.35-12.54,7.51-2.45,2.05-5.42,3.54-6.99,6.54-2.87,2.46-3.85,6.08-5.7,9.18.17,1.06-.99,1.23-1.33,1.95Z"/><path class="cls-14" d="m221.38,59.63c-.06,1.13.19,2.29-.37,3.39-.22.44-.3,1.03-.23,1.52.37,2.33-.8,4.5-.7,6.8.02.38-.22.8-.43,1.15-.67,1.12-.87,2.32-.79,3.6.04.62.01,1.24-.32,1.82-.61,1.09-1.32,2.18-.55,3.49-1.17,2.14-.92,4.35-.4,6.61.16.71-.02,1.44-.44,2.1-.28.43-.5.92-.69,1.4-.94,2.45-.95,2.48,1.27,4,.7.48.95.83.59,1.75-.8,2.04-1.62,4.06-2.98,5.77-.81,1.01-1.15,1.96-.56,3.14.46.92.32,1.77-.05,2.7-.62,1.54-1.12,3.14-.88,4.85-.73-.34-.63-1-.63-1.62,0-3.14,0-6.28,0-9.43,0-1.04.17-2.1-.44-3.06-.54-.84.47-2.28-.9-2.74-.97-.33-1.73.56-2.58.9-.45.18-.83.12-1.15-.18-1.02-.97-2.31-1.37-3.62-1.73-.4-.11-.8-.37-1.18-.34-2.36.14-4.67.31-6.81,1.65-1.09.68-1.62,1.57-2.09,2.6-.21.45-.11,1.13-.71,1.26-.49.11-1.04.06-1.54-.06-.7-.16-1.37-.46-2.07-.68-.49-.15-1-.42-1.49-.38-3.67.28-7.34.63-9.36,4.4-.51.96-1.04.91-2.01.67-2.52-.61-2.9-1.03-3.06-3.46-.12-1.82.34-3.27,1.81-4.38.41-.31.73-.75,1.12-1.1,1.75-1.6,2.68-3.34,1.6-5.82-.37-.84-.32-1.77-1.31-2.29-1.17-.62-2.37-.92-3.6-.39-1.55.67-2.95,1.57-3.41,3.39-.13.5-.42.95-.63,1.42-.2.44-.58.6-1.01.54-.45-.06-.79-.34-.78-.81.07-1.86-.41-3.76.35-5.58.08-.19.18-.4.18-.59-.03-2.6.26-5.17.64-7.75.24-1.63-.16-3.34.63-4.91-.6-2.41,1.01-2.96,2.82-3.39.57-.14,1.3,0,1.61-.74,2.64-.8,5.37-.73,8.07-.58,3.89.22,7.67-.74,11.53-.74.21,0,.42-.03.62-.07,3.74-.79,7.48-1.59,11.22-2.38-.29,2.04-.31,4.16-.93,6.09-1.41,4.45-1.51,9.14-2.79,13.6-.19.67-.16,1.44.2,2.14.37.73,1.33.88,1.8.21.36-.51.64-1.06.93-1.61.53-1.01,1.03-2.04,1.58-3.04.07-.13.36-.23.52-.2.17.03.41.2.44.36.18.8.12,1.62.79,2.3,1.28,1.3,2.68,1.22,3.42-.45.88-1.99,1.95-3.86,2.92-5.8.36-.72.67-1.49,1.54-1.89.75-.34,1.03-1.01.5-1.81-.27-.41-.11-.79.1-1.17,1.54-2.68,1.29-5.81,2.13-8.66.17-.57.13-1.26-.22-1.82-.42-.66-.35-1.4-.41-2.12,1.09-.56,1.79-1.79,3.18-1.83Z"/><path class="cls-35" d="m112.63,75.41c-2.71-.91-5.42-1.89-8.33-1.9-1.26,0-2.33-.9-3.62-.6-4.14.04-8.3-.43-12.41.57-1.69.41-3.48.49-5.14.98-2.86.84-5.79,1.51-8.52,2.79-2.89,1.35-5.88,2.52-8.48,4.42-3.71,2.08-7.23,4.43-10.29,7.42-1.11,1.08-2.09,2.31-3.54,3.02-.36.18-.65.53-.9.85-2.55,3.38-5.75,6.24-7.89,9.96-1.96,3.4-4.22,6.62-5.53,10.37-.51,1.46-1.35,2.8-2.04,4.19-1.84-.66-2.3-1.36-1.68-2.89,1.33-3.28,2.76-6.53,4.51-9.61,2-3.53,4.44-6.78,6.92-9.97,1.53-1.97,3.5-3.59,5.23-5.42,3.09-3.28,6.49-6.19,10.39-8.45,2.25-1.3,4.25-2.97,6.58-4.16,5.77-2.96,11.97-4.7,18.16-6.44,2.26-.64,4.72-.62,7.09-.79,1.46-.11,2.94.05,4.4-.05,3.79-.26,7.48.35,11.09,1.35,4.92,1.37,9.66,3.22,13.92,6.15,7.32,5.06,12.6,11.67,15.93,19.95,1.33,3.3,2.4,6.67,2.85,10.13.43,3.27,1.29,6.59.79,9.92-.65,4.29-.88,8.63-2.1,12.84-1.42,4.91-3.09,9.71-5.58,14.17-2.53,4.54-5.2,9.01-8.82,12.82-1.22,1.28-2.08,2.87-3.46,4.02-4.08,3.38-7.92,7.06-12.5,9.81-.27.16-.56.28-.8.48-.15.12-.21.34-.31.52.17.06.38.23.51.18.69-.25,1.34-.52,2.11-.49,3.03.12,5.95-.68,8.92-1.07,2.98-.39,5.92-1.05,8.89-1.34,3.1-.3,6.17-.63,9.21-1.32.5-.11,1.04-.01,1.57-.04,2.17-.1,4.33-.16,6.51-.48,3.08-.45,6.27-.2,9.41-.09,1.57.06,2.75,1.27,2.79,2.85.04,1.88.3,3.71.62,5.56.2,1.16.21,2.24,1.22,3.06.85.7.92,1.59.3,2.51-.83,1.22-.65,2.4-.26,3.81.64,2.3,1.71,4.39,2.52,6.61-.93.67-1.73,1.66-3.09,1.31.93-2.14.79-2.53-1.05-3.36-.59-.26-1.17-.4-1.8-.4-1.14,0-2.28-.01-3.43-.02-2.96-.8-5.99-.59-9.01-.61-1.78-.01-3.57-.12-5.34.02-1.22.09-1.88-.59-2.62-1.28-.02-.8.24-1.5,1.05-1.73,1.19-.33,2.42-.72,3.63-.74,2.52-.04,4.9-.72,7.33-1.2,1.21-.24,2.34-.85,3.65-.75,2.04.15,3.87-.64,5.64-1.53.43-.22,1.11-.33,1.11-.95,0-.75-.72-.54-1.18-.68-3.58-1.09-7.25-.44-10.88-.57-1.89.82-3.89.54-5.86.6-.52.01-1.04.04-1.55.13-3.05.54-6.1,1.15-9.22,1.12-.15-.28-.34-.54-.43-.83-.36-1.19-.13-1.67,1.03-1.63,1.51.04,2.88-.42,4.24-.92,2.85-1.04,5.81-1.47,8.82-1.63.52-.03,1.08.03,1.55-.13,2.94-1,5.93-1.81,8.94-2.58.9-.23,1.68-.8,1.99-1.82.14-.47.14-.89-.32-1.03-2.63-.79-5.38-1.15-8.02-.6-1.98.41-3.92.41-5.88.49-.63.03-1.31-.11-1.87.1-2.58.96-5.41.15-7.97,1.14-2.43-.34-4.77.43-7.1.8-4.29.67-8.53,1.58-12.89,1.75-.51.02-1.03.13-1.52.28-2.88.92-5.94.73-8.86,1.4-.62.14-1.08-.52-1.19-1.21-.07-.44.06-.92.51-1,1.03-.17,1.69-.68,2.09-1.65.14-.35.52-.7.87-.86,2.72-1.17,4.68-3.43,7.18-4.93,3.25-1.95,5.37-5.23,8.55-7.28.25-.16.49-.43.61-.7.52-1.19,1.59-1.92,2.38-2.88,1.45-1.76,2.98-3.48,4.24-5.37,2.7-4.06,5.13-8.26,7.14-12.75,2.92-6.55,4.35-13.35,4.71-20.44.08-1.67-.02-3.35.02-5.02.06-2.62-.61-5.12-1.07-7.66-.74-4.05-2.53-7.68-4.41-11.27-2.22-4.23-5.41-7.7-9.04-10.67-3.54-2.88-7.48-5.24-11.89-6.67Z"/><path class="cls-22" d="m221.38,59.63c-1.39.04-2.09,1.27-3.18,1.83-1.72-.09-3.07,1.04-4.65,1.47-2.64.72-5.39,1.2-7.88,2.42-3.74.8-7.48,1.59-11.22,2.38-.2.04-.41.07-.62.07-3.86,0-7.64.96-11.53.74-2.69-.15-5.42-.22-8.07.58-1.77-.02-3.54-.03-5.31-.05-.62,0-1.26.05-1.68-.56.31-.02.62-.04.92-.05.81-.03,1.38-.43,1.59-1.2.22-.82-.21-1.37-.87-1.79-1.29-.81-2.51-1.65-4.22-1.44-1.3.16-2.57-.33-3.62-1.19.94.02,1.92-.13,2.81.1,1.96.52,3.93.42,5.91.49,2.18.08,4.38-.16,6.53.48.57.17,1.3.17,1.86-.04,1.33-.48,2.68-.36,4.03-.34,4.5.05,8.92-.61,13.29-1.58,3.75-.83,7.49-1.66,11.14-2.88,3.94-1.32,7.96-2.42,11.63-4.44,2.71-.86,5.26-2.04,7.52-3.8,2.07-.78,3.79-2.2,5.72-3.22.64-.34.83-1.32.41-1.91-.47-.66-1.07-.43-1.65-.1-1.92,1.06-3.87,2.07-5.75,3.18-3.15,1.87-6.37,3.54-9.88,4.68-2.38.77-4.67,1.8-7.02,2.65-2.45.88-4.89,1.75-7.43,2.39-3.23.81-6.47,1.55-9.78,1.97-3.51.45-7,1.08-10.56,1.07-2.93-.01-5.87-.16-8.8.01-3.07.18-6.08-.34-9.01-.91-6.12-1.18-12.16-2.8-18.09-4.74-2.27-.74-4.5-1.64-6.7-2.59-.88-.38-1.77-.61-2.68-.83-.33-.08-.5.24-.49.59,0,.31,0,.63-.01.94-.62-.22-1.17-.58-1.15-1.28.02-.7.6-1.05,1.24-1.19.6-.12,1.28.06,1.76-.46.2-.22.39-.5.44-.78.07-.36-.27-.62-.54-.63-1.14-.05-2.29-.08-3.42-.02-.8.05-1.38.57-1.44,1.37-.2,2.42-.01,4.75,1.95,6.56.61.56,1.25,1.13,1.13,2.09-1.93-1.46-3.46-3.15-4.6-5.38-1.43-2.79,1.42-7.38,4.58-7.29,1.79.05,3.55.16,5.2.84,5.29,2.19,10.85,3.5,16.38,4.89,3.71.93,7.45,1.86,11.23,2.37,5.99.81,12.07,1.2,18.09.64,4.31-.4,8.62-1,12.86-2.08,3.93-1,7.73-2.31,11.57-3.55,2.88-.93,5.46-2.53,8.36-3.35,3.42-.97,6.4-2.82,9.38-4.66.99-.3,2.01-.51,2.95-.92,1.42-.62,2.87-.35,4.31-.32.37,0,.78.27,1.1.51,2.17,1.65,2.71,4.36,1.72,6.98-1.06,2.8-2.99,4.65-5.62,5.92-2.8,1.36-5.59,2.75-8.37,4.17-.63.32-1.4.46-1.78,1.18Z"/><path class="cls-17" d="m209.44,179.1c-.2,0-.41.01-.61,0-1.69-.1-2.08.31-1.91,1.91-.79-.46-.58-1.25-.6-1.94-.05-2.36.03-4.71-.57-7.05-.22-.88-.57-1.75-.71-2.66-.15-1.03-.86-1.64-1.69-2.08-.73-.38-1.37.22-2.04.43-.19.06-.41.06-.61.09-1.07-.65-1.11-1.83-1.5-2.84-.3-.79-1.08-1.02-1.62-.41-.72.81-1.53,1.28-2.6,1.34,0-.41,0-.82-.01-1.24q.29-2.26,2.26-2.54c2-.28,2.54-.96,1.91-2.91-.3-.93-.38-1.81-.38-2.74,0-2.6.03-5.2-.01-7.81-.03-1.85.29-3.74-.54-5.52-.16-.35-.06-.82-.07-1.24-.05-1.44.16-2.89-.53-4.28-.25-.51-.08-1.23-.1-1.85-.06-1.75.27-3.54-.58-5.2.28-2.3-.65-4.48-.68-6.75,2.38.26,4.62-.82,7.01-.7,2.36.12,4.74.03,7.11,0,1.47-.01,2.75-.71,4.11-1.16-.38,2.01.34,3.93.7,5.83.44,2.33.34,4.73,1.12,7.01.23.67.21,1.42.78,1.97.49.48.52,1.09.55,1.73.03.51,0,1.19.31,1.48,1.16,1.11.92,2.48.93,3.82,0,5.54,0,11.07,0,16.61,0,.27.05.69-.36.66-.25-.02-.6-.27-.7-.5-.5-1.13-1.11-2.26-1.35-3.46-.76-3.81-3.27-5.81-6.74-6.95-.82-.27-1.5-.28-2.36.05-1.86.71-2.57,1.92-2.33,3.85.14,1.12-.18,2.3.47,3.36.1.17.16.41.13.6-.32,2.62.56,5.14.77,7.71.23,2.74.24,5.57,1.19,8.24.22.62.71.68,1.24.71.53.28.61.77.6,1.31,0,1.03,0,2.06,0,3.09Z"/><path class="cls-3" d="m178.05,17.13c.14,1.26-.27,2.53-1.07,3.69-.18.26-.42.48-.56.76-2.17,4.43-6.03,6.1-10.65,6.59-2.29.24-4.44-.43-6.29-1.53-2.64-1.57-4.71-3.87-5.79-6.83-1.73-4.74-.15-9.71,3.95-12.84,4.82-3.67,11.35-3.24,16.01-.7.44.24.82.65,1.14,1.05,1.95,2.51,3.26,6.42,3.26,9.81Zm-4.43-.88c.77-3.7-3.35-8.01-7.36-8.18-4.8-.2-8.73,3.03-9.03,7.32-.33,4.71,3.81,8.68,7.94,8.83,5.43.19,8.05-3.21,8.45-7.97Z"/><path class="cls-2" d="m190.66,10.77c1.02-1.42,1.8-2.98,3.1-4.24,2.03-1.98,4.42-3.03,7.17-3.39.62-.08,1.25-.08,1.87-.13,2.35-.17,4.64.1,6.48,1.68,2.22,1.9,4.34,3.96,5,6.97.49,2.25.38,4.57.11,6.83-.12.96-.87,1.84-1.34,2.76-.65.67-1.31,1.33-1.96,2-1.98,2.03-4.3,3.16-7.23,3.12-2.11-.03-4.19-.14-6.14-.92-5.6-2.23-8.92-7.07-7.18-13.74.08-.3.08-.62.12-.93Zm20.06,3.01c-.21-1.73-.82-3.87-2.7-5.49-3.71-3.2-9.08-2.56-12.24,1.28-2.36,2.88-2.15,7.01.4,9.74,2.44,2.61,5.43,3.39,8.84,2.46,3.35-.92,5.74-4.07,5.69-7.99Z"/><path class="cls-7" d="m161.04,62.84c1.06.86,2.32,1.35,3.62,1.19,1.71-.21,2.93.63,4.22,1.44.66.42,1.1.97.87,1.79-.21.77-.78,1.17-1.59,1.2-.31.01-.62.03-.92.05-3.95-.02-7.79-.94-11.67-1.51-4.02-.59-7.8-1.95-11.54-3.49-2.09-.86-4.36-1.28-6.52-1.98-1.26-.41-2.57-.78-3.5-1.84.12-.97-.52-1.53-1.13-2.09-1.96-1.8-2.15-4.13-1.95-6.56.07-.8.64-1.33,1.44-1.37,1.14-.06,2.28-.04,3.42.02.27.01.61.28.54.63-.06.28-.24.56-.44.78-.48.52-1.16.33-1.76.46-.64.14-1.22.48-1.24,1.19-.02.7.53,1.07,1.15,1.28,1.05,1.06,2.42,1.52,3.79,1.99,1.57.54,3.14,1.08,4.68,1.67,3.01,1.15,6.1,1.97,9.24,2.68,3.12.71,6.19,1.64,9.28,2.48Z"/><path class="cls-5" d="m26.52,133.21c.68.04,1.23.23,1.24,1.06,0,1.15.02,2.3.02,3.45,0,2.3,0,4.59-.02,6.89,0,.4-.03.89-.58.93-.51.04-.6-.45-.82-.77-.45-.64-.47-1.36-.47-2.1.01-1.46,0-2.92,0-4.39,0-.55-.09-1.03-.63-1.3.24-1.32.69-2.56,1.26-3.77Z"/><path class="cls-11" d="m112.63,75.41c4.41,1.43,8.35,3.78,11.89,6.67,3.64,2.96,6.82,6.44,9.04,10.67,1.89,3.6,3.67,7.22,4.41,11.27.46,2.54,1.13,5.05,1.07,7.66-.04,1.67.07,3.35-.02,5.02-.36,7.09-1.79,13.89-4.71,20.44-2,4.49-4.44,8.69-7.14,12.75-1.26,1.89-2.79,3.61-4.24,5.37-.79.96-1.86,1.68-2.38,2.88-.12.27-.36.54-.61.7-3.17,2.05-5.3,5.33-8.55,7.28-2.49,1.5-4.46,3.76-7.18,4.93-.35.15-.73.51-.87.86-.4.97-1.06,1.48-2.09,1.65-.46.08-.58.56-.51,1,.1.69.56,1.35,1.19,1.21,2.93-.67,5.98-.48,8.86-1.4.49-.16,1.01-.26,1.52-.28,4.36-.17,8.6-1.08,12.89-1.75,2.33-.37,4.67-1.14,7.1-.8,2.57-.99,5.39-.18,7.97-1.14.56-.21,1.24-.07,1.87-.1,1.97-.08,3.9-.08,5.88-.49,2.64-.55,5.39-.19,8.02.6.45.14.46.56.32,1.03-.31,1.02-1.08,1.59-1.99,1.82-3.01.76-6,1.57-8.94,2.58-.48.16-1.03.1-1.55.13-3.01.16-5.96.59-8.82,1.63-1.36.5-2.73.96-4.24.92-1.15-.03-1.39.45-1.03,1.63.09.29.28.56.43.83-.82.51-1.71.75-2.67.63-1-.12-1.83.29-2.6.84-.2.15-.32.54-.32.82,0,.44.29.78.76.81.73.04,1.46.02,2.18.06.6.03,1.26-.18,1.75.36.31.34-.1,1.27-.98,1.74-1.21.65-2.31,1.73-3.96,1.11-.72-.27-1.35.39-1.95.77-.48.3-.23.74.02,1.07.26.33.61.57,1.08.46,2.6-.63,5.24-.93,7.9-1.21,1.67-.18,3.49-.29,5.06-1.16.74.69,1.4,1.37,2.62,1.28,1.77-.14,3.56-.03,5.34-.02,3.02.02,6.05-.19,9.01.61-.46,1.03-1.49.48-2.22.79-2.44,1.04-5.01,1.2-7.63,1.12-2.71-.09-5.33.6-7.96,1.07-.84.15-1.65.17-2.48.18-3.56.02-7.11.02-10.67,0-1.14,0-2.23-.11-3.38-.41-1.8-.46-3.76-.5-5.57,0-3.04.83-6.09,1.2-9.22,1.05-1.13-.05-2.31.2-3.37-.45-.17-.1-.4-.16-.6-.14-2.93.32-5.76-.74-8.67-.67-.31,0-.65.07-.94-.02-3.05-.95-6.2-.52-9.3-.61-.8-.02-1.51-.12-1.5-1.13.01-1.21-.69-2-1.63-2.49-1.64-.84-2.89-2.18-3.88-3.57-1-1.41-2.31-2.33-3.56-3.39-1.32-1.13-2.74-1.89-4.55-.9-.51.28-1.23.17-1.82.35-.49.15-.94.54-1.45.14-.4-.32-.94-.66-1.08-1.1-.44-1.43-1.49-2.82-.55-4.45.44-.76.2-1.64.23-2.47.02-.55-.15-1.07-.65-1.34-.66-.35-.94.26-1.15.67-.38.74-.81.77-1.5.41-.73-.38-1.43-.8-2.31-.88-2.22-.2-4.14.31-5.59,2.12-.32.4-.59.85-.92,1.25-.34.42-.85.33-1.07,0-1.79-2.66-4.29-4.8-5.66-7.76.34-.72,1.49-.89,1.33-1.95,1.85-3.09,2.83-6.72,5.7-9.18,1.57-2.99,4.53-4.49,6.99-6.54,3.79-3.16,8.11-5.45,12.54-7.51,2.35-1.09,4.75-2.08,7.18-2.97.8-.29,1.55-.5,2.16-1.13,1.16-1.21,2.61-1.75,4.26-1.51,2.51.37,4.34-.53,6.02-2.43,2.36-2.66,5.06-5.01,7.49-7.61,1.87-1.99,4.03-3.61,6.06-5.4.47-.42.87-.91,1.34-1.32,1.1-.98,1.47-2.6,2.77-3.35,1.24-.72,2.59-1.29,3.93-1.83,1.02-.41,1.57-1.35,2.47-1.91,2.03-1.25,4.02-2.56,5.99-3.89,1.74-1.17,1.92-1.69,1.43-3.64-.69-2.78-.4-5.6-.19-8.4.11-1.45-.08-2.63-1.15-3.64-.5-.47-1.06-.62-1.72-.57-.45.04-.87.18-.96.64-.52,2.53-1.28,5.05-.35,7.66.87,2.46-.28,4.45-1.64,6.35-.16.22-.53.37-.84.16-.16-.11-.35-.32-.35-.48.01-1.66-.12-3.3.23-4.98.62-2.93,1.27-5.9.96-8.94-.16-1.56-.43-3.07-1.6-4.27-1.16-1.18-1.46-2.71-1.52-4.29-.04-1.05.1-2.11-.03-3.14-.23-1.87.38-3.49,1.27-5.05Z"/><path class="cls-15" d="m194.99,165.9c1.07-.06,1.88-.53,2.6-1.34.53-.6,1.32-.37,1.62.41.38,1.01.43,2.19,1.5,2.84-.01,3.33-.03,6.66-.03,9.99,0,.93-.04,1.85.35,2.76.23.55.21,1.21.23,1.83.06,1.96-.12,3.93.58,5.85.24.64.05,1.44.06,2.17-1.1-1.04-2.65-.31-3.88-.93-.17-.08-.72.6-1.09.92-.01-1.67-.06-3.35-.03-5.02.06-4.07-.54-8.05-1.14-12.06-.36-2.44-1.16-4.89-.76-7.42Z"/><path class="cls-11" d="m66.13,81.68c2.61-1.9,5.59-3.07,8.48-4.42,2.73-1.28,5.65-1.95,8.52-2.79,1.67-.49,3.45-.57,5.14-.98,4.11-1,8.27-.53,12.41-.57-1.04.84-2.18,1.54-2.74,2.87-.23.54-.8.95-1.24,1.4-6.22,6.22-12.44,12.44-18.65,18.66-2.69,3.93-10.11,2.07-12.13-.91-.65-.95-1.03-1.97-1.09-3.19-.13-2.88.73-5.53,1.63-8.18.25-.73.56-1.39-.33-1.88Z"/><path class="cls-6" d="m205.67,65.35c2.5-1.22,5.24-1.71,7.88-2.42,1.58-.43,2.93-1.55,4.65-1.47.07.72,0,1.46.41,2.12.35.56.39,1.25.22,1.82-.84,2.86-.59,5.98-2.13,8.66-.21.37-.38.76-.1,1.17.53.8.25,1.47-.5,1.81-.87.4-1.18,1.16-1.54,1.89-.96,1.94-2.04,3.81-2.92,5.8-.74,1.68-2.14,1.76-3.42.45-.67-.68-.61-1.5-.79-2.3-.03-.15-.27-.33-.44-.36-.16-.03-.45.07-.52.2-.55,1-1.05,2.03-1.58,3.04-.29.55-.58,1.11-.93,1.61-.47.67-1.43.52-1.8-.21-.36-.7-.39-1.46-.2-2.14,1.28-4.46,1.38-9.15,2.79-13.6.61-1.94.64-4.06.93-6.09Z"/><path class="cls-18" d="m136.53,187.27c-1.57.87-3.39.98-5.06,1.16-2.66.28-5.3.57-7.9,1.21-.47.11-.82-.13-1.08-.46-.26-.32-.5-.76-.02-1.07.6-.38,1.23-1.05,1.95-.77,1.64.62,2.74-.45,3.96-1.11.88-.47,1.29-1.4.98-1.74-.49-.54-1.15-.33-1.75-.36-.73-.04-1.46-.01-2.18-.06-.48-.03-.76-.37-.76-.81,0-.28.11-.67.32-.82.76-.55,1.6-.96,2.6-.84.96.12,1.85-.11,2.67-.63,3.12.03,6.17-.58,9.22-1.12.51-.09,1.03-.11,1.55-.13,1.97-.06,3.97.23,5.86-.6,3.63.12,7.3-.52,10.88.57.46.14,1.18-.07,1.18.68,0,.61-.68.73-1.11.95-1.77.89-3.6,1.69-5.64,1.53-1.3-.1-2.43.51-3.65.75-2.43.48-4.81,1.16-7.33,1.2-1.22.02-2.44.41-3.63.74-.81.22-1.07.92-1.05,1.73Z"/><path class="cls-36" d="m161.04,62.84c-3.09-.84-6.16-1.78-9.28-2.48-3.14-.71-6.23-1.53-9.24-2.68-1.55-.59-3.11-1.14-4.68-1.67-1.37-.47-2.74-.93-3.79-1.99,0-.31.02-.63.01-.94,0-.35.16-.67.49-.59.9.23,1.8.46,2.68.83,2.2.95,4.43,1.85,6.7,2.59,5.93,1.94,11.97,3.56,18.09,4.74,2.93.56,5.94,1.09,9.01.91,2.92-.17,5.86-.03,8.8-.01,3.56.02,7.05-.62,10.56-1.07,3.31-.42,6.55-1.16,9.78-1.97,2.54-.64,4.98-1.5,7.43-2.39,2.35-.85,4.64-1.88,7.02-2.65,3.5-1.14,6.73-2.81,9.88-4.68,1.88-1.12,3.83-2.12,5.75-3.18.58-.32,1.18-.56,1.65.1.42.6.23,1.58-.41,1.91-1.94,1.02-3.65,2.44-5.72,3.22-.84-.43-1.62-.84-2.62-.23-1.67,1.03-3.44,1.9-5.11,2.93-.37.23.15.72.2,1.1-3.67,2.02-7.69,3.12-11.63,4.44-3.64,1.22-7.39,2.05-11.14,2.88-4.38.97-8.79,1.63-13.29,1.58-1.35-.02-2.7-.14-4.03.34-.56.2-1.29.21-1.86.04-2.15-.64-4.35-.4-6.53-.48-1.98-.07-3.95.02-5.91-.49-.88-.23-1.87-.08-2.81-.1Z"/><path class="cls-4" d="m218.24,54.64c-.05-.38-.57-.87-.2-1.1,1.67-1.03,3.44-1.9,5.11-2.93.99-.61,1.78-.2,2.62.23-2.26,1.75-4.81,2.94-7.52,3.8Z"/><path class="cls-39" d="m173.63,16.25c-.41,4.77-3.03,8.17-8.45,7.97-4.13-.15-8.27-4.12-7.94-8.83.3-4.29,4.23-7.52,9.03-7.32,4.01.17,8.14,4.47,7.36,8.18Z"/><path class="cls-38" d="m210.72,13.78c.05,3.92-2.34,7.07-5.69,7.99-3.41.93-6.4.15-8.84-2.46-2.55-2.73-2.77-6.86-.4-9.74,3.15-3.84,8.53-4.48,12.24-1.28,1.88,1.62,2.49,3.76,2.7,5.49Z"/><path class="cls-36" d="m192.23,32.65c.09-.07.17-.13.26-.2.11.01.21,0,.31-.04.31-.08.64-.08.96-.01.37.08.68.3.89.6.19.28.43.56.36.96-.03.17.12.36-.08.51-.03.02-.02.09-.02.13.02.52-.32.84-.67,1.14-.11.1-.27.13-.43.14-.34.03-.67-.07-1-.11-.22-.03-.95-.61-1.03-.81-.05-.11-.07-.23-.1-.35-.02-.07-.03-.15-.05-.22-.1-.52-.09-1,.36-1.38.11-.09.25-.19.24-.37Z"/><path class="cls-36" d="m183.03,38.4s-.03-.07-.04-.07c-.36-.01-.6-.29-.9-.42-.08-.03-.14-.11-.2-.18-.05-.06-.07-.14-.12-.19-.61-.69-.39-1.45-.19-2.2.22-.31.44-.62.79-.81.07-.04.14-.07.21-.1.59-.3.72-.33,1.36-.28.25.02.48.09.65.29.07.08.14.18.23.22.27.12.39.34.48.59.14.37.24.75.25,1.15,0,.29-.09.54-.23.78-.11.18-.23.36-.35.53-.24.31-.54.51-.93.61-.34.09-.67.04-1,.09h0Z"/></g></svg>