<?xml version="1.0" encoding="UTF-8"?><svg id="Layer_2" xmlns="http://www.w3.org/2000/svg" viewBox="0 0 389.89 898.42"><defs><style>.cls-1{fill:#69a065;}.cls-2{fill:#f09591;}.cls-3{fill:#ef9291;}.cls-4{fill:#ef9392;}.cls-5{fill:#ef9092;}.cls-6{fill:#ef9492;}.cls-7{fill:#f2a7a5;}.cls-8{fill:#ffa8bf;}.cls-9{fill:#ffa8c0;}.cls-10{fill:#ffa7bf;}.cls-11{fill:#ffa9c0;}.cls-12{fill:#ee9390;}.cls-13{fill:#ee938f;}.cls-14{fill:#e46a33;}.cls-15{fill:#f19495;}.cls-16{fill:#fda1b3;}.cls-17{fill:#2f6e2e;}.cls-18{fill:#2f6d2d;}.cls-19{fill:#2f6d2e;}.cls-20{fill:#306b2d;}.cls-21{fill:#326f2e;}.cls-22{fill:#e15e22;}.cls-23{fill:#41793e;}.cls-24{fill:#417840;}.cls-25{fill:#437940;}.cls-26{fill:#437b42;}.cls-27{fill:#3d783d;}.cls-28{fill:#3e7a3e;}.cls-29{fill:#45753f;}.cls-30{fill:#54904e;}.cls-31{fill:#629d61;}.cls-32{fill:#478e45;}.cls-33{fill:#477e46;}.cls-34{fill:#2f6c2d;}.cls-35{fill:#316c2e;}.cls-36{fill:#3c8538;}.cls-37{fill:#599653;}.cls-38{fill:#4b8f48;}.cls-39{fill:#488f46;}.cls-40{fill:#74a369;}.cls-41{fill:#4a8f48;}.cls-42{fill:#51924d;}.cls-43{fill:#4f8f49;}.cls-44{fill:#4e904a;}.cls-45{fill:#4e924c;}.cls-46{fill:#4c8f48;}</style></defs><g id="illustrations"><path class="cls-36" d="m32.94,166.41c1.55-1.95,3.5-3.46,5.54-4.84,3.84-2.6,7.57-5.36,11.77-7.39,2.21-.13,3.92-1.54,5.88-2.28,3.56-1.33,6.76-3.32,10.2-4.84.9-.4,1.66-.91,2.29-1.62.25-.28.43-.51.21-1.01-.33-.73-.21-.78.53-.94,1.74-.24,3.45-.65,5.18-.94,3.74-.62,7.4-1.75,11.25-1.6.13,0,.26-.08.39-.1,5.02-1.04,10.04-2.11,15.07-3.11,4.24-.84,8.51-1.64,12.48-3.4,2.34-1.04,4.66-2.3,5.65-5.01.57-1.56-.7-3.18-2.51-3.41-1.9-.24-3.7.38-5.57.27-2.06-.12-4.13-.03-6.19-.02-.27,0-.56-.02-.82.04-4.47,1.11-8.95,2.1-13.54,2.61-1.3.14-2.62.81-3.98.62-1.59-.22-2.86.94-4.39.85-3.29-.19-6.42,1.38-9.75.86-.38-.06-.88,0-1.19.2-1.13.73-2.38.54-3.6.6-5.04.25-10.14-.7-15.11.82-5.22-.56-10.32,1.11-15.53.83-.72-.04-1.36.07-1.7.82-2.72-.59-5.45-1.08-8.25-.83-1.08-1.13-2.6-1.39-3.99-1.59-3.11-.46-5.94-1.73-8.85-2.76-3.64-1.3-5.54-4.69-8.13-7.23-.27-.26-.47-.73-.46-1.1.08-2.59-.5-5.23.3-7.75.85-2.71,1.75-5.41,3.05-7.97,1.53-3,3.05-6,4.82-8.89,2.16-3.53,5.15-6.3,7.64-9.51.25-.32.57-.66.93-.8,1.48-.56,2.39-1.79,3.48-2.81,2.59-2.42,5.33-4.64,8.59-6.13,1.73-.78,3.31-1.88,5.22-2.28.62-.13.54-.87.62-1.4,2.35-.88,4.93-1.06,7.12-2.5.86-.57,2.04-.67,3.1-.91,4.39-1,8.77-2.09,13.2-2.91,4.33-.8,8.74-.45,13.12-.34,2.05.05,4.11.12,6.16.14.6,0,.98-.38,1.12-.98.68.42.94.91.18,1.48-.19.14-.51.09-.75.18-.28.1-.93-.05-.57.55.13.22.69.19,1.06.27,1.57,1.62,3.73,2.05,5.71,2.88,7.39,3.1,15.12,5.16,22.74,7.55,1.78.56,3.79.49,5.53,1.26,1.18.52,2.33.71,3.58.7.82,0,1.74-.11,2.43.22,2.39,1.12,4.88.38,7.32.58.74.06,1.27-.37,1.82-.81,1.54-1.24,1.55-2.9,1-4.49-.58-1.68-1.52-3.14-3.37-3.91-3.14-1.3-6.29-2.65-9.26-4.29-2.74-1.52-5.61-2.67-8.47-3.9-1.48-.63-3.1-.82-4.44-1.97-.86-.74-2.23-1.05-3.42-1.17-1.14-.12-2.11-.49-3.1-.95-3.81-1.77-7.62-3.54-11.41-5.32-4.81-2.26-9.6-4.59-14.44-6.79-3.22-1.46-6.28-3.11-9.18-5.16-3.32-2.35-6.6-4.81-10.27-6.65-.78-1.84-2.5-2.51-4.12-3.3-.76-1.39-1.67-2.75-1.01-4.47-.98-.95-.1-2.76-1.09-3.33-1.17-.68-2.49.42-3.72.82-.26.08-.49.24-.74.34-1.52.64-1.51.63-2.49-.75-.23-.32-.51-.59-.77-.88-.47-2.53-.22-4.88,1.46-6.98.41-.52.59-1.23.85-1.87,2.57-6.42,7.62-9.89,14.05-11.5,1.88-.47,3.64-1.05,5.37-1.93,2.34-1.21,4.91-1.68,7.55-1.69,2.61,0,5.21.06,7.79-.49,1.03-.22,2.21-.09,3.26.15,2.53.57,5.04,1.21,7.53,1.98,7.32,2.27,14.73,4.26,22.06,6.51,7.88,2.41,15.42,5.65,22.54,9.85.82,1.27,2.18,1.89,3.35,2.74,3.96,2.86,8.51,4.91,11.7,8.83,2.09,2.57,4.62,4.66,7.76,5.9.38.15.83.29,1.07.57,2.15,2.56,5.36,3.74,7.73,6,.62.59,1.28.97,2.19.94,2.41-.09,4.44,1.1,6.56,2.02,1.1.48,2.05,1.43,3.4,1.23.9.4,1.77.86,2.43,1.63,1.28,2.33,3.39,3.91,5.26,5.67,1.92,1.8,3.16,4.09,4.97,5.95,1.41,1.45,2.73,2.17,4.63.94.4-.26,1.07-.09,1.62-.12,1.83-.91,3.87-1.56,5.45-2.78,2.96-2.28,6.68-3.01,9.66-5.18,2.54-.36,4.37-2.11,6.47-3.33.94-.54,1.82-1.21,2.77-1.73,3.23-1.76,6.54-3.37,9.7-5.23,6.08-3.58,11.84-7.73,18.57-10.13,1.61-1.69,4.15-1.38,5.86-2.62,1.85-1.34,4.04-1.53,5.97-2.47,1.24-.61,2.61-.47,3.92-1.04,2.57-1.14,5.37-1.75,8.04-2.67,1.28-.44,2.6-.92,3.71-1.67,1.32-.89,2.9-.55,4.25-1.31,3.57-2.01,7.71-2.26,11.52-3.57.37-.13.82-.02,1.23-.02,2.2,0,4.4-.02,6.59.01.81.01,1.64.07,2.43.24,2.11.46,4.27.82,6.3,1.54,2.41.86,5.17.61,7.3,2.33,1.87.53,2.24,2.59,3.75,3.59,1.57,1.05,2.77,2.63,4.19,3.92.84.77,1.39,1.75,1.69,2.76.39,1.32.87,2.57,1.52,3.76.8,1.48.18,3.21.99,4.74.46.87-1.17,1.03-1.28,1.83-.51,3.6-1.95,7.05-1.78,10.77-1.44.57-.45,2.34-1.53,3.08-.39,3.41-2.31,5.8-5.06,7.65-.06-1.11,0-2.16.93-3.01,1.01-.92,1.92-1.96,2.85-2.96.32-.34.27-.78-.05-1.08-.16-.15-.54-.27-.73-.19-2.74,1.2-5.47,2.41-8.18,3.67-7.14,3.33-13.75,7.63-20.74,11.25-5.78,2.99-11.43,6.27-17.39,8.89-3.35,1.47-6.63,3.09-10.04,4.43-3.91,1.54-7.82,3.34-10.47,6.93-.66.9-.63,1.25.5,1.76.55.25,1.56.05.31,1.02-1.83,1.43-1.78,1.56-.48,3.64.37.6.77,1.07.45,1.84-.3.73.12,1.03.75.74.76-.35,1.48-.61,2.34-.6,2.58,0,5.16.19,7.69-.74.97-.36,2.18-.05,3.27-.11,1.48-.08,1.6-1.85,2.65-2.29,1.93-.82,3.32-2.35,5.04-3.44-.1,1.26.65,1.58,1.73,1.78.55.1.82.66.32,1.25-.3.36-1.59,1.03.04,1.05,6.86.1,13.71.03,20.57.05,2.17,0,4.31-.09,6.46.69,1.22.44,2.67.7,3.94.76,2.05.11,3.89,1.43,6,.89,2.23,0,4.18,1.04,6.23,1.71,3.46,1.13,6.9,2.31,10.08,4.11.56,1.29,1.88,1.51,2.96,1.91,3.96,1.48,7.63,3.56,11.41,5.4,2.34,1.13,4.39,2.66,6.52,4.11,1.93,1.31,3.36,3.28,5.42,4.27,3.78,1.82,6.59,4.73,9.62,7.47,2.2,2,3.22,4.7,4.99,6.93.23.29.23.77.31,1.16.62,3.34,1.1,6.7.84,10.11.17.98-.56,1.65-.83,2.48-1.44,2.51-3.29,4.67-5.39,6.65-.89.84-1.8,1.66-2.28,2.87-.18.45-.77,1.05-1.17,1.05-1.86,0-2.89,1.5-4.29,2.27-3.93,2.16-8.1,2.18-12.35,1.96-2.18-1.16-4.55-.68-6.86-.76-1.51-.05-3.08.22-4.52-.1-3.85-.87-7.82-.84-11.64-1.64-3.7-.78-7.41-1.44-11.13-2.08-4.53-.77-8.8-2.77-13.47-2.82-1.87-1.02-4.08-.39-5.95-1.16-1.89-.78-3.89.02-5.66-.58-1.88-.64-3.73-.72-5.64-.72-.14,0-.28,0-.41,0-1.63-.08-2.57.98-3.17,2.22-.45.95-.65,2.23-.58,3.14.08,1.04-.05,2.84,2.03,3.02.84.07,1.55,1.11,2.42,1.42,4.83,1.75,9.63,3.53,14.76,4.35,2.64.42,5.16,1.58,7.73,2.4,1.67.53,3.32,1.31,5.03,1.49,2.13.23,4.39.6,6.4-.71-.05.59,1.29,1.6-.49,1.65-.96.03-1.92,0-2.88,0-1.14-.01-2.29.45-2.73,1.32-.31.6.9,1.22,1.42,1.84.79.93,1.69,1.73,2.35,2.82.76,1.26,1.88,2.38,3.04,3.31,2.01,1.61,4.14,3.07,6.27,4.53,2.23,1.53,4.56,2.93,6.77,4.5,2.44,1.73,4.62,3.88,7.22,5.28,2.63,1.42,3.95,3.85,5.25,6.09,1.33,2.27,2.84,4.59,3.46,7.27.58,2.53,2.91,3.9,4.18,5.97v.84c-1.6,3.17-3.38,6.27-4.75,9.53-1.29,3.06-3.55,5.24-5.95,7.22-2.37,1.95-4.86,3.98-8.26,3.97-.25,0-.51.19-.76.29-4.37,1.74-8.91,2.17-13.6,2.19-3.83.01-7.21-.93-10.59-2.56-3.16-1.53-6.02-3.81-9.7-4.2-.37-.04-.77-.31-1.06-.58-2.48-2.4-5.61-3.91-8.5-5.62-4.92-2.91-9.83-5.81-14.59-8.99-2.24-1.5-4.78-2.58-7.4-3.42-1.64-.53-2.93-.38-4.06.95-.27.31-.59.58-.91.84-1.79,1.46-1.68,1.42-.93,3.23.53,1.27,1.36,2.16,2.6,2.4,2.34.45,3.75,2.12,5.28,3.65,2.14,2.13,4.27,4.28,6.42,6.41.87.86,1.79,1.62,2.87,2.28,3.5,2.15,3.46,2.27,7.43,1.16.78-.22,1.46-.67,2.34-.46,2.22.53,10.19,4.01,12.9,5.69-2.49.06-4.77-.82-7.07-1.59-1.66-.56-3.31-1.13-4.98-1.65-.62-.19-.99.25-.76.91.67,1.91,1.36,3.81,2.05,5.71.09.67-.04,1.48.3,2,2.11,3.28,2.76,7.08,3.61,10.74.86,3.67,2.24,7.33,1.86,11.17-.3,3.05,1.1,5.22,2.91,7.31.54.62,1.18,1.15,1.73,1.76.74.8,1.46,1.59,2.1,2.5,2.15,3.04,3.83,6.35,5.12,9.76,1.33,3.5,3.44,6.85,3.15,10.85-.03.36.36.73.5,1.11.49,1.43.26,2.67-.92,3.71-.61.54-1.35,1.12-1.28,2.02.21,2.8-.57,5.37-1.57,7.93-.14.36.29.71.7.86-.35.97-1,1.58-2.07,1.64-.59.03-1.02.26-1.23.83-2.04-.02-4.01-.18-6.05-.67-2.75-.67-5.39-1.7-8.26-2.1-2.21-.3-4.47-1.02-6.66-1.65-2.05-.6-4.09-1.43-6.1-2.25-3.51-1.44-7.18-2.57-10.25-4.94-1.62-1.25-3.13-2.68-4.88-3.68-2.65-1.51-4.56-3.86-6.95-5.68-3.24-2.46-6.63-4.75-9.65-7.55-2.09-1.94-4.2-3.92-6.47-5.64-4.36-3.32-7.96-7.46-12.27-10.82-1.71-1.33-2.99-3.15-4.97-4.25-1.15-.64-2.25-1.73-2.88-2.89-1.02-1.87-2.61-3.15-3.99-4.66-.65-.71-1.38-1.35-1.96-2.11-2.33-3.02-4.48-6.2-7.3-8.78-3.88-3.53-6.94-7.7-9.68-12.1-2.91-4.66-6.96-8.37-10.19-12.75-.32-.44-.78-.77-1.19-1.14-.56-.52-1.39-.72-1.9-.34-1.54,1.12-2.9.52-4.19-.28-1.19-.73-2.22-.87-3.42-.06-.79.53-1.81.72-2.56,1.28-4.13,3.1-8.25,6.23-12.22,9.54-2.31,1.92-4.44,4.12-6.84,5.83-3.36,2.4-6.06,5.48-9.27,8.03-4.26,3.39-7.75,7.71-12.08,11.1-.97.76-1.93,1.48-3,2.1-3.29,1.93-6.46,4.03-9.19,6.74-6.51,6.45-12.84,13.07-20.18,18.65-4.32,3.29-8.53,6.72-13.03,9.77-5.09,3.45-10.58,6.19-16.08,8.9-3.58,2.11-7.45,2.87-11.56,2.47-.28-.84-.85-1.47-1.71-1.6-1.82-.27-3.3-1.29-4.84-2.13-3.71-2.02-6.5-5.01-8-8.98-.85-2.26-1.28-4.68-1.85-7.03-.09-.38-.14-.91.05-1.21,1.07-1.65.53-3.47.67-5.22.09-1.08-.16-2.18.25-3.25.78-2.02,1.46-4.08,2.23-6.11,1.55-4.07,4.08-7.66,5.81-11.65.11-.25.26-.48.41-.71,3.09-4.63,6.18-9.26,9.27-13.88,4.13-6.17,9.19-11.47,14.13-16.87,2.86-3.12,5.41-6.52,8.45-9.47.68-.66,1.32-1.62.95-2.47-.16-.37-1.51-.21-2.31-.3-.41-.04-.82-.1-1.23-.15.35-.47.81-.71,1.41-.66,2.7.26,5.03-.9,7.42-1.88,3.35-1.38,5.84-3.95,8.62-6.11,2.59-2.01,2.79-4.94,2.21-7.85-.22-1.1-.66-2.62-2.01-2.91-2.13-.46-4.6-.88-6.43.13-2.23,1.23-4.68,2.01-6.82,3.55-3.29,2.36-6.83,4.43-10.53,6.18-2.7,1.28-5.33,2.76-7.81,4.41-2.04,1.35-4.13,2.34-6.4,3.27-3.83,1.56-7.86,2.06-11.8,2.73-3.74.64-7.33,1.82-11.07,2.35-3.82.54-7.04,2.76-10.7,3.76-.7.19-1.24,1.03-1.81,1.61-.15.16-.17.49-.17.75,0,.54.48.71.85.69,4.62-.21,9.21.32,13.88-.56,4.38-.83,8.81-1.45,13.06-2.8,1.75-.55,3.42-.83,5.2-.6-.49.75-1.33,1.08-2.07,1.22-4.29.79-8.41,2.33-12.78,2.75-3.53.34-7.02,1.18-10.61.9-.53-.04-1.12-.03-1.62.15-2.5.88-4.78.17-7.01-.93-.26-.29-.47-.75-.79-.84-2.11-.56-4.22-1.04-5.76-2.81-.3-.35-1.02-.59-1.48-.51-1.93.33-3-.9-4.26-1.99-2.93-2.54-3.93-6.2-5.7-9.41-.12-.22-.13-.53-.13-.8.03-3.12-.36-6.23,1.51-9.16,1.52-2.39,2.55-5.08,2.68-8.06.06-1.34.86-2.58,1.88-3.55,1.97-1.88,3.67-4.06,6.35-5.13,1.43-.57,2.17-1.73,2.51-3.44.7-3.49,2.1-6.67,4.77-9.31,1.89-1.88,3.67-3.97,4.97-6.38Zm19.09,127.51h-.01c0,.14.01.28,0,.41-.54,5.19,3.4,9.04,8.46,8.53.41-.04.83.04,1.23-.02.21-.03.52-.23.55-.38.03-.23-.11-.52-.26-.72-.25-.32-.52-.7-.87-.86-3.29-1.55-4.78-4.72-6.74-7.46-.47-.66-.78-1.43-1.23-2.12-.12-.19-.45-.33-.68-.33-.15,0-.41.3-.42.48-.05.82-.02,1.64-.02,2.47Z"/><path class="cls-10" d="m241.13,520.83c2.29,1.58,2.92,4.22,3.92,6.52,1.97,4.53,1.84,4.59,1.85,10.29,0,2.19-.05,4.38,0,6.57.09,3.44-.78,6.71-1.64,9.98-.55,2.09-1.49,4.05-1.83,6.23-.2,1.29-.87,2.66-1.72,3.67-2.95,3.48-5.53,7.34-9.61,9.7-.26-.52-.65-.86-1.26-.89-4.93-.26-9.75,1.26-14.68.91-1.62,1.06-3.45.71-5.21.71-10.17.02-20.33,0-30.5,0-.82,0-1.72.2-2.46-.06-3.75-1.32-7.61-.52-11.41-.76-1.09-.07-2.34.24-3.26-.18-1.6-.74-3.21-.69-4.83-.62-3.03.12-5.9-.85-8.86-1.2-3.35-.39-6.62-1.51-10.05-1.27-.06-.54-.03-1.11-.54-1.49-2.29-1.71-4.56-3.44-6.88-5.11-2.01-1.45-3.86-3.03-5.12-5.21-.14-.24-.27-.49-.47-.67-3.91-3.76-4.45-8.81-5.23-13.75-.15-.93-.02-1.88-.42-2.81-.57-1.3-.48-2.65.02-3.99.23-.63.48-1.35.38-1.98-.67-4.41,1.51-7.99,3.51-11.53,2.47-4.36,5.19-8.59,8.95-12.01.06.53-.01,1.3.64,1.36,1.93.2,3.63,1.19,5.47,1.53,2.3.43,4.38,1.57,6.64,1.87,6.05.82,12,2.22,17.89,3.62,6.06,1.44,12.15,2.69,18.26,3.7,4,.66,7.92,2.01,12.04,1.91,4.52,1.61,9.34,1.61,14.01,2.25,4.68.64,9.53.52,14.2-1.05,3.2-1.08,6.63-1.4,9.74-2.83,2.68.16,5-1.18,7.5-1.8.87-.22.84-.96.94-1.63Z"/><path class="cls-9" d="m242.81,301c-.63.41-.92,1-.85,1.73.32,3.64-.11,7.29,0,10.93.18,5.79-.59,9.18-2.66,14.44-1.29,3.29-2.99,6.32-4.78,9.33-.54.91-.57,1.73-.11,2.62-2.21-.77-4.55-1.41-6.78-.65-2.75.94-5.63.6-8.4,1.34-2.04.54-4.32-.1-6.43.82-.68.3-1.77.29-2.41-.05-1.7-.91-3.48-.58-5.23-.66-1.23-.06-2.61.29-3.67-.16-2.01-.85-4.03-.57-6.06-.68-.68-.03-1.47.17-2.04-.09-2.23-1.03-4.56-.62-6.86-.74-.95-.05-2,.09-2.82-.27-1.2-.53-2.39-.56-3.61-.52-3.56.1-6.97-.78-10.43-1.43-2.65-.5-5.35-.76-8.04-1.05-1.21-.13-2.4-.35-3.59-.55-2.33-.39-4.89-1.09-7,.92-.66.62-1.56.53-2.36.43-2.54-.31-5.08-.65-7.48-1.63.13-.67.9-1.23-.39-1.88-2.79-1.4-5.67-2.65-8.27-4.48-4.37-3.06-7.41-7.03-9.64-11.84-2.63-5.69-1.87-11.16.6-16.52,2.39-5.2,4.87-10.39,8.3-15.01,2.35-3.16,4.79-6.26,7.27-9.32.49-.6,1.35-.9,2.04-1.33.09.4.08,1.09.28,1.16,1.49.53,2.37,1.48,2.83,3.03.14.49,1.04.82,1.65,1.1,1.73.78,3.55,1.4,5.24,2.27,5.87,3.04,12.4,3.87,18.62,5.73,3.73-.13,7.18,1.38,10.77,2.04,3.49.64,6.9,1.46,10.48,1.31,2.06-.09,4.13,0,6.19-.02,1.89-.02,3.85.35,5.4-1.31.58-.62,1.58-.37,2.39-.32,3.03.15,5.98-.27,8.85-1.23.64-.21,1.32-.44,1.98-.41,2.13.1,4.06-.6,5.86-1.55,1.53-.8,3.11-.97,4.74-1.12,1.48.69,2.07,2.61,3.9,2.81.35.41.68.84,1.05,1.22,3.82,3.87,7.64,7.74,11.46,11.61Z"/><path class="cls-11" d="m134.64,840.34c-4.04-1.75-6.8-4.96-9.18-8.46-1.83-2.7-3.17-5.7-3.74-8.97-.09-.53-.26-1.06-.3-1.59-.26-3.7.61-7.27,1.32-10.86.58-2.93,2.47-5.1,4.11-7.43,1.88-2.67,3.81-5.3,6.11-7.63.46-.47,1.08-.79,1.63-1.17-.02,1.49.71,2.44,2.19,2.39,2.24-.07,4.34.2,6.31,1.36.54.32,1.32.24,1.99.33.81.11,1.62.17,2.43.29,3.48.51,6.91,1.4,10.47,1.38,2.19-.01,4.48-.26,6.56.26,1.64.41,3.22.54,4.85.55,9.9.02,19.81,0,29.71.01,1.1,0,2.37-.29,3.26.15,2.14,1.06,4.34.73,6.48.6,1.72-.11,3.38-.69,5,.41.24.17.75-.03,1.13-.08,6.33-.88,12.47-2.66,18.44-4.8,4.59-1.65,9.27-3.11,13.71-5.24,1.69-.81,2.41-1.57,2.18-3.31.14.02.33-.01.4.07,2.45,2.75,4.35,5.85,5.92,9.17.17.36.26.78.28,1.18.08,1.76.5,3.53.58,5.22.08,1.67.19,3.38.23,5.08.02.82-.06,1.6-.37,2.4-.28.74-.4,1.6-.36,2.39.16,2.89-.33,5.6-1.73,8.18-1.29,2.38-2,5.11-4.09,7-.91.82-.26,1.43,0,2.14-.88.06-1.39-.34-1.87-1.1-.48-.76-1.08-.44-1.44.28-1.77.03-3.57-.17-5.2.79-5.6.03-10.78,2.51-16.4,2.73-2.75.11-5.5,1.19-8.33,1.55-2,.25-4.15.3-5.99.89-2.64.85-5.5.04-7.97,1.42-2.22-.29-4.26.94-6.43.85-3.29-.13-6.42,1.34-9.73.91-1.91,1.03-4.01.91-6.02.72-2.26-.21-4.26.87-6.44.87-5.63-.01-11.25,0-16.88,0-.27,0-.58.07-.82-.02-3.31-1.28-6.76-.64-10.15-.79-1.51-.07-3.16.33-4.49-.18-2.03-.77-4.04-.53-6.06-.66-.6-.04-1.05.2-1.33.74Z"/><path class="cls-10" d="m146.14,501.86c-.37-1.41-1.78-1.61-2.74-2.31-2.75-2.01-5.57-3.88-8.06-6.27-1.66-1.59-3.3-3.17-4.8-4.92-2.68-3.11-4.05-6.66-4.29-10.78-.22-3.73.53-7.35,1.06-10.97.33-2.25,1.73-4.28,2.98-6.24.73-1.15,1.64-2.18,2.33-3.36.57-.96,1.08-1.87,2.19-2.32,1.46-.59,1.79-2.35,3.11-3.11,0,.72.15,1.31.94,1.62,1.9.75,3.73,1.68,5.65,2.33,6.3,2.13,12.62,4.18,18.94,6.25.51.17,1.04.41,1.56.41,3.69-.03,7.27,1.35,10.99.88.54-.07,1.2-.14,1.63.1,1.81,1.04,3.76.57,5.65.7,3.39.24,6.76-.2,10.2.64,2.73.66,5.83.55,8.6,0,2.32-.47,4.6-.76,6.89-.58,4.28.34,8.38-1.31,12.64-.92.26.02.54-.08.8-.14,3.29-.77,6.58-1.54,9.87-2.31,1.2-.28,2.41-.53,3.11-1.71,3.51,3.69,6.22,7.9,8.11,12.62.61,1.52.98,3.1.9,4.79-.1,2.19-.05,4.4.02,6.6.08,2.92-.59,5.67-1.7,8.34-.94,2.25-1.18,4.78-2.61,6.83-1.56,2.24-3.08,4.52-4.83,6.6-.93,1.11-1.75,2.5-3.34,2.9-.75-1.26-1.98-.69-2.98-.69-16.48-.04-32.96-.03-49.45-.05-2.44,0-4.84-.27-7.29-.64-4.95-.76-9.71-2.42-14.74-2.85-3.19-.28-6.29-1.43-9.46-2.06-.56-.11-1.25.39-1.88.61Z"/><path class="cls-8" d="m239.44,401.14c2.14,3.69,3.65,7.52,3.32,11.92-.26,3.4-.08,6.78-.71,10.21-.66,3.61-2.09,6.79-3.84,9.84-1.9,3.3-3.98,6.53-6.36,9.49-2.02,2.52-3.97,5.16-6.5,7.25-.42-.16-.79-.51-.65-.89.5-1.26.17-1.62-1.19-1.61-9.63.04-19.25.02-28.88.01-1.1,0-2.34.25-3.26-.18-1.74-.8-3.49-.57-5.26-.62-2.06-.07-4.26.37-6.15-.21-2.06-.64-4.05-.53-6.08-.61-1.65-.07-3.42.35-4.93-.12-3.11-.96-6.24-.6-9.36-.73-.69-.03-1.5.17-2.03-.13-1.69-.94-3.48-.63-5.24-.67-2.06-.04-4.13-.02-6.19-.02.15-.22.27-.47.45-.65.32-.32,1.25-.39.62-1.09-.91-1.02-1.86-2.04-2.96-2.85-4.2-3.12-7.69-6.89-10.97-10.95-1.73-2.15-3.38-4.27-4.51-6.77-.28-.62-.69-1.26-.72-1.9-.27-6.14-.48-12.27,2.11-18.1,1.89-4.26,4.26-8.17,7.7-11.36,0,.87.19,1.69,1,2.12.96.51,1.91,1.01,3.01,1.27,3.02.72,5.99,1.67,9.01,2.37,4.48,1.03,8.93,2.14,13.53,2.73,2.78.35,5.59,1.06,8.39,1.35,2.83.3,5.59,1.39,8.51.93.4-.06.9-.1,1.22.09,1.66.99,3.47.64,5.23.72.69.03,1.48-.17,2.04.11,2.23,1.1,4.58.59,6.88.71.96.05,2.04-.24,2.86.11,2.66,1.11,5.41.63,8.12.71,2.75.08,5.5.02,8.25.03.68,0,1.45-.08,1.87.58,1.07,1.66,2.79,1.27,4.08.91,1.61-.45,3.25-.4,4.81-.79,1.61-.4,3.22-.5,4.8-.81,1.74-.33,3.43-.73,5.22-.83.99-.06,2.14-.47,2.73-1.54Z"/><path class="cls-9" d="m223.02,891.69c-3.24,1.35-6.6,2.33-9.98,3.2-4.59,1.18-9.19,2.46-13.87,3.12-3.9.55-7.92.64-11.86-.24-.53-.12-1.07-.34-1.59-.32-5.62.16-11.15-1.29-16.79-.91-1.75.12-3.55.26-5.26-.6-.56-.28-1.35-.16-2.03-.15-7.68.16-14.76-2.32-21.62-5.32-2.45-1.07-4.8-2.58-7.22-3.86-.24-.13-.5-.26-.69-.45-2.65-2.76-5.59-5.2-7.88-8.36-2.79-3.86-3.41-8.11-2.7-12.48.76-4.72,2.53-9.19,5.67-12.95.17-.2.44-.31.67-.46.16.21.28.54.5.62,3.54,1.4,7.3,2.18,11.01,2.63,4.06.49,7.98,1.39,11.95,2.26,2.9.64,5.81,1.4,8.86,1.21,1.77-.11,3.63-.19,5.3.27,1.36.38,2.67.51,4.03.51,5.36.01,10.72.02,16.08,0,1.09,0,2.23.26,3.24-.3,1.16-.65,2.41-.55,3.62-.48,4.25.26,8.37-1.33,12.63-.89.26.03.54-.08.8-.14,5.02-1.04,10.03-2.17,15.08-3.09,5.59-1.02,11.03-2.63,16.53-4.01,6.54-1.64,12.28-5.11,18.44-7.61,1.28.1,2.1-.51,2.54-1.68.69.34.84.95.77,1.62-.1.99.46,1.72.88,2.51-.85.09-1.66.23-1.68,1.36,0,.41-.06.83-.01,1.24.4,3.47-.95,6.27-2.83,9.14-2.1,3.2-4.81,5.93-6.75,9.2-.72,1.21-1.62,2.18-2.53,3.19-3.61,4.03-8.19,6.8-12.82,9.36-4.52,2.5-9.33,4.5-14.03,6.66-1.6.74-3.23,1.51-4.92,1.92-3.41.84-6.83,1.81-10.39,1.71-1.9-.05-3.49.49-4.79,1.85-.15.16-.2.51-.16.75.07.45.41.66.87.65,1.36-.03,2.53-.83,3.97-.8,6.32.12,12.65.09,18.97.11Z"/><path class="cls-11" d="m243.63,742.11c1.59.69,1.97,2.24,2.36,3.64,1.14,4.03,3.17,7.81,3.44,12.08,1.61,2.97.3,5.88-.4,8.71-.41,1.67-1.1,3.33-1.7,4.96-.64,1.73-1.98,3.21-3.04,4.79-.61.91-1.24,1.81-2.3,2.27-.34-.73-1.01-1.12-1.66-.78-1.68.87-3.45.7-5.21.72-.41,0-.89-.1-1.22.07-2.91,1.44-6.28.09-9.17,1.56-1.98-.47-3.69.86-5.61.85-4.22-.02-8.35,1.34-12.61.84-.39-.05-.88-.04-1.2.16-1.53.93-3.2.6-4.82.63-3.02.04-6.04.01-9.05.03-.82,0-1.78-.21-2.44.13-1.84.97-3.75.6-5.64.67-1.78.06-3.69-.37-5.32.13-3.25,1.01-6.5.55-9.75.72-.95.05-1.94.01-2.83.28-3.37,1.02-6.79.35-10.19.46-2.46-1.28-5.11-.5-7.67-.77-1.18-.12-2.12.37-3.11.83-.29-.73-1.01-.94-1.62-1.13-2.88-.92-5.41-2.61-8.18-3.72-4.12-1.65-6.93-4.81-9.9-7.84-1.41-1.44-1.82-3.37-2.39-5.16-1.44-4.49-1.14-5.7.95-10.14,2.39-5.08,6.05-9.05,10.34-12.54.11.83.22,1.64,1.34,1.71.94.06,1.89-.05,2.81.39,2.25,1.08,4.66,1.47,7.15,1.29.27-.02.58-.06.82.04,2.89,1.24,5.93.63,8.91.78,1.09.05,2.31-.18,3.24.23,1.47.65,2.93.58,4.43.58,11.52.01,23.04,0,34.56,0,.96,0,2.06.25,2.85-.13,1.98-.94,4.04-.79,6.05-.64,4.26.32,8.36-1.33,12.6-.93,2.03-1.06,4.32-.46,6.4-.98,3.03-.75,6.12-1.11,9.19-1.4,2.88-.27,5.53-1.22,8.27-1.94.67-.18,1.08-.81,1.32-1.48Z"/><path class="cls-11" d="m238.6,640.63c2,2.13,2.78,4.92,4.04,7.45.72,1.45,1.3,3,1.72,4.57,1.38,5.24,1.19,10.04-.04,14.92-.16.65-.42,1.31-.76,1.88-2.52,4.2-4.84,8.57-8.75,11.74-.94.77-1.58,1.91-2.82,2.31-.17-.2-.32-.56-.52-.59-2.54-.37-5.09-.93-7.64-.98-6.87-.13-13.74-.05-20.61-.04-.96,0-2.04-.18-2.84.2-1.6.77-3.22.56-4.85.59-2.47.04-4.95.01-7.42.03-.82,0-1.79-.21-2.44.13-1.84.98-3.76.61-5.65.66-2.47.07-4.95,0-7.42.03-1.22,0-2.42-.04-3.63.48-.83.36-1.87.3-2.82.31-3.3.04-6.6.02-9.89.03-.82,0-1.74-.2-2.45.09-2.79,1.15-5.67.61-8.52.71.45-.86.93-1.66-.37-2.3-3.91-1.92-7.54-4.3-11.12-6.76-4.77-3.29-8.55-7.45-11.29-12.57-2.23-4.17-2.54-8.56-1.46-13.05.33-1.37.01-2.77.46-4.04,1.03-2.91,1.85-5.94,3.97-8.34.11.51-.03,1.18.58,1.44.87.37,1.76.71,2.66.97,3.64,1.03,7.24,2.24,10.94,2.98,3.86.77,7.43,2.39,11.34,3.1,3.68.66,7.14,2.58,11.05,2.39,1.85,1.27,4.11.16,5.98.97,2.15.93,4.33.4,6.49.55,1.23.08,2.47-.01,3.7.03,2.3.07,4.57-.05,6.88.64,1.76.52,3.95.54,5.69-.03,2.06-.67,4.04-.52,6.07-.6,2.06-.08,4.2.29,6.15-.17,2.9-.68,5.72-1.68,8.77-1.56.38.01.78-.21,1.17-.33,2.07-.62,4.12-1.31,6.22-1.84,2.74-.7,5.49-1.54,8.29-1.84,3.69-.4,7.08-1.72,10.57-2.74.64-.19.49-.9.58-1.42Z"/><path class="cls-8" d="m140.33,624.06c-.99-1.15-2.35-1.77-3.58-2.6-2.04-1.37-3.95-2.9-5.77-4.6-3.13-2.93-4.97-6.58-5.98-10.57-.76-3.03-.63-6.27.1-9.37.19-.81.43-1.59.39-2.41-.14-2.96,1.09-5.54,2.16-8.18.04-.09.24-.12.37-.17.31.84.89,1.4,1.77,1.54.8.13,1.59.18,2.39.46,5.13,1.76,10.51,2.55,15.77,3.79,3.42.81,6.91,1.18,10.32,2.15,3.88,1.1,7.83,2.47,12.02,1.93.53-.07,1.12-.03,1.63.11,3.95,1.14,7.98,1.65,12.09,1.53.82-.02,1.76-.21,2.45.1,2.25,1.04,4.59.75,6.89.68,6.97-.24,13.94.58,20.92-.68,3.44-.62,7.03-.29,10.58-.82,4.75-.7,9.13-2.57,13.76-3.54.79-.17,1.03-1.21.55-2.03-.54-.92-1.65-1.55-1.33-2.87,2.23,1.51,3.64,3.5,4.26,6.2.61,2.63,1.36,5.21,1.47,7.93.07,1.59.68,3.26.36,4.74-.36,1.65-.23,3.24-.34,4.86-.08,1.09-.19,2.1-.64,3.15-1.51,3.51-3.59,6.7-5.49,9.99-.8,1.38-2.2,2.4-3.32,3.6-1.01,1.09-2.33,1.92-2.97,3.34-2.78-1.57-5.95-1.98-8.96-2.32-3.18-.36-6.53-.73-9.74.48-.85.32-1.89.16-2.84.2-.82.04-1.78-.2-2.44.14-1.83.94-3.74.63-5.64.67-1.92.05-3.84-.02-5.76.03-2.3.06-4.59-.19-6.87.67-1.19.45-2.7.4-4-.27-1.03-.54-2.12-.62-3.14-.05-1.03.57-2.14.31-3.2.48-2.24.35-4.3-.86-6.43-.76-2.52.13-4.84-.65-7.23-1.09-1.04-.19-2.1-.45-3.14-.71-3.79-.95-7.56-1.99-11.27-3.2-3.34-1.09-6.72-1.96-10.19-2.55Z"/><path class="cls-9" d="m144.39,384.53c1.74-2.33,1.76-2.38-.75-3.61-4.68-2.3-8.06-5.89-10.76-10.29-1.27-2.07-2.67-3.97-3.34-6.41-.75-2.71-.97-5.28-.21-8,.47-1.68.52-3.45,1.09-5.15.96-2.84,2.01-5.58,4.08-7.82.26.66.67,1.24,1.32,1.5,4.4,1.76,8.91,3.19,13.52,4.28,1.3.31,2.53.84,3.94.97,3.49.32,6.83,1.71,10.4,1.68,1.48,1.01,3.18.81,4.79.68,1.71-.13,3.09.99,4.8.89,2.99-.18,5.86,1.19,8.91.88.48-.05,1,.38,1.53.52,2.1.54,4.36-.16,6.45.84.3.14,1.05-.77,1.65-1.08.32-.16.87-.25,1.14-.08,1.27.82,2.67.53,4.01.54,6.59.03,13.18.01,19.76,0,.96,0,1.99.18,2.87-.11,2.73-.88,5.59-.93,8.36-1.55,3.98-.89,7.88-2.01,11.44-4.09.73-.42.85-.99.91-1.67,1.48,2.46,2.38,5.06,2.51,7.98.21,4.57-.48,8.96-1.96,13.27-.83,2.44-1.49,4.94-2.24,7.41-1.41,4.61-3.64,8.82-6.37,12.77-.22.31-.64.48-.97.71-.26-.55-.75-1.02-1.26-.65-2.17,1.55-4.62,1.51-7.1,1.46-1.23-.03-2.43-.04-3.62.52-.7.33-1.6.26-2.42.27-3.16.03-6.34-.15-9.49.08-3.26.23-6.48-.22-9.72-.07-.68.03-1.5.18-2.04-.12-1.82-1.02-3.76-.59-5.65-.69-1.37-.07-2.8.18-4.11-.12-4.76-1.1-9.53-1.92-14.39-2.47-4.03-.45-7.98-1.55-12.08-1.57-.4,0-.81-.1-1.21-.19-3.58-.83-7.16-1.58-10.87-1.45-.96.03-1.92-.04-2.88-.07Z"/><path class="cls-8" d="m240.18,699.36c2.67,2.86,3.98,6.44,4.95,10.08,1.35,5.08,1.4,10.24.11,15.39-.7,2.8-2.36,5.18-3.38,7.83-.08.2-.44.29-.68.43-1.5.05-3.08-.17-4.49.21-2.36.64-4.73,1.08-7.11,1.58-5.44,1.13-10.82,2.49-16.43,2.35-.4,0-.89-.04-1.2.15-1.53.93-3.2.57-4.82.65-2.84.15-5.75-.44-8.5.78-4.66,0-9.33.01-13.99.02-2.48-1.05-5.09-.73-7.67-.8-2.71-.07-5.41.19-8.11-.7-1.48-.49-3.18-.5-4.78-.78-2.24-.39-4.68-.58-6.91.18-1.22.41-2.4.47-3.62.48-2.2.01-4.39-.01-6.59-.02-.05-.53.08-1.26-.55-1.41-3.12-.75-5.55-2.8-8.29-4.28-.59-.32-1.17-.7-1.66-1.16-3.6-3.29-6.19-7.32-7.38-11.97-.66-2.57-.54-5.49-.1-8.15.66-4,2.13-7.8,4.8-11,2.62-.09,5.06.85,7.58,1.34,2.92.56,5.79,1.71,8.71,1.84,3.15.14,6.15,1.46,9.33.98.26-.04.6-.05.81.07,1.51.89,3.19.85,4.81.69,1.72-.16,3.12.88,4.8.91,3.27.05,6.48.56,9.46,2.05.36.18.77.34,1.16.34,3.58.02,7.24.48,10.7-.14,3.02-.55,5.98-.73,8.95-.57,3.34.18,6.52-.68,9.74-1.1,3.34-.43,6.67-1.06,10.03-1.46,2.28-.27,4.56-.63,6.82-1.06,3.59-.67,7.06-1.85,10.71-2.28,1.05-.12,2.08-.56,2.79-1.47Z"/><path class="cls-22" d="m294.79,846.06c4.72.11,9.44.22,14.15.31,1.09.02,2.16.06,3.14.59.26.29.48.77.79.83,2.14.45,4.02,1.38,5.88,2.52,1.69,1.03,3.56,1.84,5.46,2.43.91.28,1.7.67,2.55,1.02,2.74,1.14,3.66,3.92,5.55,5.81.32.32.35,1,.4,1.52.08.81-.23,1.8.13,2.42,1.29,2.22.29,3.9-1.06,5.51-.81.97-.72,1.99-.57,3.08-.62,1.93-2.35,3.01-3.48,4.55-2.13.84-4.22,1.78-6.4,2.49-3.5,1.14-6.46,3.37-9.85,4.71-.85.34-1.65.96-2.02,1.91-3.78.78-7.62.82-11.44,1.06-4.36.28-8.7.91-13.05,1.34-3.81.38-7.63.73-11.45,1.04-5.86.47-11.73.91-17.6,1.34-1.23.09-2.47.06-3.7.16-8.48.71-16.97.99-25.48.93-.96,0-1.92-.06-2.88-.09.18-.19.32-.46.55-.56,4.49-2.01,9.06-3.86,13.46-6.04,3.94-1.94,7.58-4.42,10.51-7.79.9-1.03,1.66-2.2,2.62-3.16,2.78-2.77,4.6-6.13,6.16-9.65.78-1.74,1.64-3.52,1.95-5.37.33-2.01.42-4.06.8-6.09.19-1.04-.1-2.17-.21-3.26-.07-.67-.28-1.34-.32-2.01-.05-.78.35-1.31,1.18-1.38.68-.05,1.37-.05,2.06-.05,6.88-.02,13.76.02,20.63-.08,3.85-.05,7.69.42,11.54-.04Z"/><path class="cls-2" d="m237.84,588.52c-.32,1.31.79,1.95,1.33,2.87.48.82.24,1.86-.55,2.03-4.64.98-9.02,2.84-13.76,3.54-3.55.53-7.14.19-10.58.82-6.98,1.26-13.95.44-20.92.68-2.3.08-4.64.36-6.89-.68-.69-.32-1.63-.13-2.45-.1-4.11.12-8.14-.38-12.09-1.53-.51-.15-1.1-.18-1.63-.11-4.19.54-8.15-.83-12.02-1.93-3.41-.97-6.9-1.34-10.32-2.15-5.26-1.24-10.64-2.02-15.77-3.79-.81-.28-1.59-.33-2.39-.46-.87-.14-1.46-.7-1.77-1.54,2.4-5.49,5.5-10.5,9.93-14.59.48-.45,1.09-.76,1.64-1.14,3.44-.23,6.7.88,10.05,1.27,2.96.35,5.82,1.32,8.86,1.2,1.62-.07,3.23-.11,4.83.62.92.42,2.16.11,3.26.18,3.8.24,7.66-.56,11.41.76.74.26,1.64.06,2.46.06,10.17,0,20.33.02,30.5,0,1.76,0,3.59.35,5.21-.71,4.93.35,9.75-1.17,14.68-.91.61.03.99.38,1.26.89-.74.8-1.46,1.62-2.22,2.39-1.32,1.35-1.38,1.49.15,2.38,2.43,1.4,4.17,3.52,6.05,5.49,1.16,1.21,1.78,2.74,1.75,4.46Z"/><path class="cls-13" d="m255.93,842.89c-6.16,2.5-11.91,5.97-18.44,7.61-5.5,1.38-10.94,2.99-16.53,4.01-5.05.92-10.05,2.05-15.08,3.09-.27.05-.54.16-.8.14-4.26-.44-8.38,1.15-12.63.89-1.21-.07-2.46-.17-3.62.48-1.01.56-2.15.3-3.24.3-5.36.02-10.72.02-16.08,0-1.36,0-2.66-.14-4.03-.51-1.67-.46-3.54-.38-5.3-.27-3.05.19-5.96-.57-8.86-1.21-3.96-.87-7.89-1.78-11.95-2.26-3.71-.44-7.47-1.23-11.01-2.63-.21-.08-.33-.41-.5-.62.97-2.87,3.53-4.36,5.52-6.34.47-.47,1.14-.73,1.65-1.16,2.56-2.13,2.55-2.19-.41-4.07.28-.54.72-.77,1.33-.74,2.03.12,4.03-.12,6.06.66,1.33.5,2.98.11,4.49.18,3.39.15,6.84-.49,10.15.79.24.09.54.02.82.02,5.63,0,11.25-.01,16.88,0,2.18,0,4.19-1.08,6.44-.87,2.01.19,4.11.3,6.02-.72,3.31.43,6.43-1.05,9.73-.91,2.17.09,4.21-1.14,6.43-.85,2.48-1.38,5.33-.57,7.97-1.42,1.84-.59,3.98-.64,5.99-.89,2.83-.36,5.58-1.44,8.33-1.55,5.62-.22,10.8-2.7,16.4-2.73,1.63-.96,3.43-.76,5.2-.79,3.87,3.5,6.44,7.96,9.06,12.38Z"/><path class="cls-21" d="m242.81,301c-3.82-3.87-7.65-7.73-11.46-11.61-.38-.38-.7-.81-1.05-1.22-.03-.94-.78-1.4-1.34-1.98-5-5.26-10.47-10.05-15.03-15.74-2.38-2.97-4.93-5.83-7.06-8.97-1.98-2.92-4.87-5.17-6.25-8.53-.19-.47-.76-.78-1.13-1.19-.45-.51-.94-1.01-1.27-1.6-3.6-6.24-7.56-12.25-11.56-18.25-.63-.94-1.22-1.93-2.2-2.36-1.34-.58-2.14-1.69-3.16-2.58-.87-.76-1.16-.71-1.98.19-1.1,1.2-1.52,2.98-3.12,3.73-3.31,1.55-5.66,4.25-8.17,6.75-2.83,2.81-5.58,5.69-8.47,8.43-2.28,2.15-4.55,4.39-7.14,6.11-3.8,2.52-7.04,5.59-10.21,8.8-1.44,1.46-2.65,3.06-3.39,4.99-.72.91-1.59,1.65-2.59,2.23-.52.13-1.19.1-1.53.42-1.71,1.6-3.75,2.69-5.63,4.03-3.43,2.44-7.19,4.46-10.15,7.53-2,2.08-4.16,3.94-6.66,5.39-.58.34-1.14.76-1.62,1.24-4.22,4.14-9.05,7.4-14.31,10.05-.37.18-.77.3-1.11.53-3.6,2.44-7.32,4.59-11.64,5.55-1.18.26-2.27.89-3.23,1.7-1.61,1.37-3.67,1.74-5.61,2.31-.73.22-1.68.26-2.09-.77,5.5-2.71,10.99-5.45,16.08-8.9,4.5-3.05,8.71-6.49,13.03-9.77,7.34-5.58,13.67-12.2,20.18-18.65,2.73-2.71,5.9-4.81,9.19-6.74,1.07-.63,2.03-1.34,3-2.1,4.33-3.38,7.82-7.71,12.08-11.1,3.21-2.55,5.91-5.63,9.27-8.03,2.4-1.71,4.53-3.91,6.84-5.83,3.97-3.31,8.08-6.44,12.22-9.54.75-.56,1.77-.75,2.56-1.28,1.2-.81,2.23-.67,3.42.06,1.29.79,2.65,1.4,4.19.28.52-.38,1.34-.18,1.9.34.4.37.87.71,1.19,1.14,3.23,4.38,7.28,8.09,10.19,12.75,2.74,4.39,5.8,8.57,9.68,12.1,2.83,2.57,4.98,5.76,7.3,8.78.58.76,1.31,1.4,1.96,2.11,1.38,1.5,2.97,2.79,3.99,4.66.63,1.16,1.73,2.25,2.88,2.89,1.98,1.1,3.26,2.92,4.97,4.25,4.31,3.36,7.91,7.5,12.27,10.82,2.26,1.72,4.38,3.71,6.47,5.64,3.02,2.8,6.41,5.08,9.65,7.55,2.39,1.81,4.3,4.16,6.95,5.68,1.75,1,3.27,2.43,4.88,3.68,3.07,2.36,6.74,3.5,10.25,4.94,2,.82,4.05,1.65,6.1,2.25,2.19.64,4.45,1.35,6.66,1.65,2.87.39,5.51,1.43,8.26,2.1,2.04.49,4.01.65,6.05.67.09.54.45-.35.38.19-.2,1.38-.59,2.6-2.09,3.07-1.99.61-3.67,1.73-5.14,3.18-.49.48-1.01,1.02-1.75.97-2.99-.2-5.96.24-8.99-.42-4.95-1.08-9.54-3.13-14.23-4.86-3.27-1.2-6.5-2.74-9.52-4.61-2.66-1.65-5.35-3.26-8.06-4.83-.3-.18-.81,0-1.22,0-3.56-1.97-6.29-4.99-9.38-7.56-1.14-.94-2.17-2-3.51-2.68Z"/><path class="cls-6" d="m240.18,699.36c-.71.91-1.74,1.34-2.79,1.47-3.64.43-7.12,1.61-10.71,2.28-2.26.42-4.54.78-6.82,1.06-3.36.4-6.69,1.03-10.03,1.46-3.22.42-6.4,1.28-9.74,1.1-2.97-.16-5.94.02-8.95.57-3.46.63-7.13.16-10.7.14-.39,0-.81-.16-1.16-.34-2.98-1.5-6.19-2-9.46-2.05-1.68-.03-3.08-1.07-4.8-.91-1.62.15-3.29.2-4.81-.69-.21-.13-.55-.11-.81-.07-3.19.48-6.18-.83-9.33-.98-2.93-.13-5.79-1.28-8.71-1.84-2.52-.48-4.96-1.43-7.58-1.34.38-2.2,1.86-3.86,2.98-5.64,2.16-3.45,4.89-6.42,8.53-8.42,2.85-.09,5.73.45,8.52-.71.71-.29,1.63-.09,2.45-.09,3.3,0,6.6,0,9.89-.03.95-.01,1.98.04,2.82-.31,1.21-.52,2.41-.47,3.63-.48,2.47-.02,4.95.04,7.42-.03,1.89-.05,3.81.31,5.65-.66.65-.35,1.62-.13,2.44-.13,2.47-.01,4.95.02,7.42-.03,1.63-.03,3.25.19,4.85-.59.79-.38,1.88-.2,2.84-.2,6.87-.01,13.74-.1,20.61.04,2.55.05,5.1.61,7.64.98.2.03.35.38.52.59-2.84,2.41-2.76,2.34-.36,5.09,3.02,3.45,6.11,6.86,8.55,10.78Z"/><path class="cls-12" d="m140.33,624.06c3.46.59,6.84,1.46,10.19,2.55,3.71,1.21,7.48,2.25,11.27,3.2,1.04.26,2.1.52,3.14.71,2.38.43,4.71,1.21,7.23,1.09,2.13-.11,4.19,1.11,6.43.76,1.06-.17,2.17.09,3.2-.48,1.02-.56,2.11-.48,3.14.05,1.3.67,2.81.72,4,.27,2.28-.86,4.57-.61,6.87-.67,1.92-.05,3.84.02,5.76-.03,1.89-.04,3.8.27,5.64-.67.66-.34,1.62-.1,2.44-.14.95-.04,1.99.12,2.84-.2,3.21-1.21,6.56-.84,9.74-.48,3.01.34,6.19.75,8.96,2.32,2.9,2.39,5.51,5.03,7.43,8.3-.09.52.06,1.23-.58,1.42-3.49,1.02-6.89,2.34-10.57,2.74-2.8.3-5.55,1.14-8.29,1.84-2.09.53-4.15,1.22-6.22,1.84-.39.12-.78.34-1.17.33-3.04-.12-5.86.88-8.77,1.56-1.95.46-4.1.09-6.15.17-2.02.08-4.01-.07-6.07.6-1.74.57-3.93.55-5.69.03-2.32-.69-4.58-.56-6.88-.64-1.23-.04-2.47.06-3.7-.03-2.16-.15-4.34.38-6.49-.55-1.87-.81-4.13.3-5.98-.97-3.91.19-7.37-1.73-11.05-2.39-3.91-.71-7.48-2.33-11.34-3.1-3.7-.74-7.3-1.95-10.94-2.98-.91-.26-1.8-.6-2.66-.97-.61-.26-.46-.93-.58-1.44,2.34-4.42,6.13-7.51,9.87-10.62,1.55-1.28,3.32-2.29,4.99-3.42Z"/><path class="cls-3" d="m144.49,785.09c.98-.47,1.93-.96,3.11-.83,2.56.27,5.21-.51,7.67.77,3.4-.11,6.82.56,10.19-.46.89-.27,1.88-.23,2.83-.28,3.25-.17,6.51.29,9.75-.72,1.63-.51,3.54-.07,5.32-.13,1.89-.06,3.81.3,5.64-.67.66-.34,1.62-.13,2.44-.13,3.02-.01,6.04.01,9.05-.03,1.62-.02,3.29.3,4.82-.63.32-.19.81-.2,1.2-.16,4.26.49,8.39-.86,12.61-.84,1.92,0,3.63-1.32,5.61-.85,2.89-1.47,6.26-.12,9.17-1.56.34-.17.81-.06,1.22-.07,1.76-.03,3.53.15,5.21-.72.65-.34,1.32.05,1.66.78-.33.43-.62.9-1,1.29-.45.48-.57.99.01,1.35,2.96,1.83,5.17,4.47,7.61,6.88.19.19.46.29.69.44.22,1.74-.49,2.5-2.18,3.31-4.44,2.13-9.12,3.59-13.71,5.24-5.97,2.14-12.11,3.92-18.44,4.8-.38.05-.88.25-1.13.08-1.62-1.1-3.28-.52-5-.41-2.14.13-4.34.46-6.48-.6-.89-.44-2.16-.15-3.26-.15-9.9,0-19.81,0-29.71-.01-1.63,0-3.2-.13-4.85-.55-2.08-.52-4.36-.27-6.56-.26-3.56.02-6.99-.86-10.47-1.38-.81-.12-1.62-.19-2.43-.29-.67-.09-1.45-.01-1.99-.33-1.98-1.16-4.07-1.43-6.31-1.36-1.48.05-2.21-.91-2.19-2.39.95-1.89,3.11-2.43,4.43-3.95,1.21-1.4,2.48-2.81,4.18-3.7.59-.31,1.08-.79,1.28-1.48Z"/><path class="cls-12" d="m146.14,501.86c.63-.22,1.32-.72,1.88-.61,3.17.63,6.27,1.78,9.46,2.06,5.03.44,9.78,2.09,14.74,2.85,2.44.38,4.84.64,7.29.64,16.48.02,32.96,0,49.45.05,1,0,2.24-.57,2.98.69-.52.44-1.04.87-1.55,1.32-.58.52-.76,1.01-.09,1.66,1.68,1.6,3.15,3.48,5.01,4.83,2.19,1.6,3.99,3.54,5.82,5.47-.1.67-.07,1.41-.94,1.63-2.49.62-4.82,1.96-7.5,1.8-3.11,1.43-6.54,1.75-9.74,2.83-4.67,1.57-9.52,1.69-14.2,1.05-4.67-.64-9.48-.65-14.01-2.25-4.12.1-8.04-1.26-12.04-1.91-6.11-1.01-12.21-2.26-18.26-3.7-5.9-1.4-11.85-2.8-17.89-3.62-2.26-.31-4.35-1.45-6.64-1.87-1.84-.34-3.54-1.33-5.47-1.53-.65-.07-.57-.83-.64-1.36,2.67-3.19,5.82-5.84,9.29-8.12,1-.66,2.03-1.27,3.05-1.91Z"/><path class="cls-11" d="m151.18,266.57c.41-.97,1.14-1.9-.08-2.88-1.36-1.09-2.23-2.81-4.15-3.15,1.46-1.23,2.93-2.45,4.38-3.69,4.18-3.55,8.3-7.16,12.53-10.65,5.18-4.27,10.56-8.3,15.64-12.69,5.09-4.39,4.4-3.73,7.63,1.28,3.18,4.94,6.24,9.99,9.26,15.04,5.02,8.41,10.93,16.09,17.67,23.17.27.29.42.69.62,1.04-3.11,1.57-6.36,2.05-9.77,1.23-.66-.16-1.31-.43-1.97-.45-3.95-.1-7.87.02-11.82-.75-2.76-.54-5.65-.31-8.5-.78-3.1-.51-6.1-1.21-9.06-2.15-5.68-1.81-11.39-3.55-16.97-5.66-2.01-.76-3.29-.58-4.61.93-.14.16-.52.11-.79.16Z"/><path class="cls-4" d="m240.27,347.47c-.06.69-.18,1.25-.91,1.67-3.57,2.07-7.46,3.2-11.44,4.09-2.76.62-5.63.66-8.36,1.55-.88.28-1.91.1-2.87.11-6.59,0-13.18.03-19.76,0-1.34,0-2.74.29-4.01-.54-.26-.17-.82-.08-1.14.08-.6.31-1.35,1.23-1.65,1.08-2.09-1-4.34-.3-6.45-.84-.52-.14-1.04-.57-1.53-.52-3.04.32-5.91-1.05-8.91-.88-1.71.1-3.08-1.03-4.8-.89-1.61.12-3.31.32-4.79-.68-3.57.03-6.91-1.35-10.4-1.68-1.4-.13-2.63-.67-3.94-.97-4.6-1.09-9.12-2.52-13.52-4.28-.66-.26-1.07-.84-1.32-1.5-.16-1.43,1.11-2.07,1.73-3.06,1.28-2.05,2.92-3.79,4.96-5.12,2.4.98,4.94,1.31,7.48,1.63.8.1,1.7.19,2.36-.43,2.11-2.01,4.67-1.31,7-.92,1.19.2,2.38.42,3.59.55,2.69.29,5.39.55,8.04,1.05,3.46.65,6.87,1.53,10.43,1.43,1.22-.03,2.41,0,3.61.52.82.36,1.87.23,2.82.27,2.3.12,4.64-.29,6.86.74.57.26,1.35.06,2.04.09,2.03.1,4.05-.17,6.06.68,1.06.45,2.44.1,3.67.16,1.75.08,3.53-.25,5.23.66.64.34,1.73.35,2.41.05,2.11-.91,4.39-.27,6.43-.82,2.77-.74,5.65-.39,8.4-1.34,2.23-.77,4.57-.12,6.78.65,2.67,1.91,5.22,3.9,5.86,7.41Z"/><path class="cls-5" d="m146.14,444.06c2.06,0,4.13-.02,6.19.02,1.76.04,3.55-.27,5.24.67.54.3,1.35.1,2.03.13,3.13.13,6.25-.23,9.36.73,1.51.47,3.28.05,4.93.12,2.03.08,4.02-.03,6.08.61,1.89.58,4.09.15,6.15.21,1.76.06,3.51-.18,5.26.62.92.42,2.16.18,3.26.18,9.63.01,19.25.03,28.88-.01,1.36,0,1.69.35,1.19,1.61-.15.38.23.73.65.89,2.93,2.69,6.39,4.77,9.06,7.75.35.39.66.84.98,1.26-.7,1.18-1.91,1.43-3.11,1.71-3.29.77-6.58,1.54-9.87,2.31-.26.06-.54.17-.8.14-4.26-.39-8.36,1.25-12.64.92-2.29-.18-4.57.11-6.89.58-2.77.56-5.88.67-8.6,0-3.44-.83-6.81-.4-10.2-.64-1.89-.13-3.84.34-5.65-.7-.42-.24-1.09-.17-1.63-.1-3.73.47-7.3-.91-10.99-.88-.52,0-1.05-.24-1.56-.41-6.32-2.07-12.65-4.12-18.94-6.25-1.93-.65-3.76-1.58-5.65-2.33-.79-.31-.94-.9-.94-1.62,1.64-1.56,3.26-3.14,4.91-4.68,1.06-.99,1.96-2.19,3.31-2.85Z"/><path class="cls-15" d="m151.18,266.57c.27-.05.65,0,.79-.16,1.31-1.51,2.6-1.69,4.61-.93,5.57,2.11,11.28,3.85,16.97,5.66,2.96.94,5.96,1.64,9.06,2.15,2.86.47,5.74.24,8.5.78,3.94.77,7.87.65,11.82.75.66.02,1.31.29,1.97.45,3.41.82,6.66.34,9.77-1.23,2.17,2.25,4.2,4.66,6.56,6.69,1.76,1.51,3.59,2.92,5.17,4.63-1.63.16-3.22.32-4.74,1.12-1.8.94-3.73,1.65-5.86,1.55-.65-.03-1.34.2-1.98.41-2.88.96-5.82,1.38-8.85,1.23-.81-.04-1.81-.29-2.39.32-1.55,1.66-3.51,1.29-5.4,1.31-2.06.03-4.13-.07-6.19.02-3.58.15-7-.67-10.48-1.31-3.59-.66-7.03-2.16-10.77-2.04-6.22-1.87-12.76-2.69-18.62-5.73-1.68-.87-3.5-1.48-5.24-2.27-.61-.28-1.51-.61-1.65-1.1-.46-1.55-1.34-2.5-2.83-3.03-.21-.07-.19-.76-.28-1.16,1.4-2.29,4.01-3.18,5.81-5.06,1.19-1.24,2.83-2.06,4.26-3.07Z"/><path class="cls-3" d="m144.39,384.53c.96.03,1.93.1,2.88.07,3.71-.13,7.29.63,10.87,1.45.4.09.8.19,1.21.19,4.1.01,8.05,1.11,12.08,1.57,4.86.55,9.64,1.37,14.39,2.47,1.31.3,2.74.05,4.11.12,1.89.09,3.83-.34,5.65.69.53.3,1.35.15,2.04.12,3.24-.15,6.47.3,9.72.07,3.15-.22,6.32-.04,9.49-.08.81,0,1.72.06,2.42-.27,1.19-.56,2.4-.55,3.62-.52,2.48.05,4.93.09,7.1-1.46.51-.36,1.01.1,1.26.65.18.87.84,1.41,1.51,1.82,3.66,2.27,5.44,5.8,6.7,9.71-.59,1.08-1.75,1.48-2.73,1.54-1.79.11-3.48.5-5.22.83-1.59.3-3.2.41-4.8.81-1.55.38-3.19.34-4.81.79-1.29.36-3.01.75-4.08-.91-.42-.65-1.19-.57-1.87-.58-2.75,0-5.5.06-8.25-.03-2.71-.08-5.46.4-8.12-.71-.82-.35-1.9-.05-2.86-.11-2.3-.12-4.65.38-6.88-.71-.56-.28-1.35-.08-2.04-.11-1.76-.08-3.57.27-5.23-.72-.31-.19-.82-.15-1.22-.09-2.92.46-5.67-.63-8.51-.93-2.8-.3-5.61-1-8.39-1.35-4.6-.59-9.05-1.7-13.53-2.73-3.03-.7-5.99-1.65-9.01-2.37-1.1-.26-2.05-.76-3.01-1.27-.81-.43-1.01-1.25-1-2.12,2.1-2.03,4.32-3.94,6.52-5.86Z"/><path class="cls-4" d="m146.94,737.19c2.2,0,4.39.03,6.59.02,1.22,0,2.39-.07,3.62-.48,2.23-.75,4.67-.57,6.91-.18,1.6.28,3.3.29,4.78.78,2.7.89,5.4.63,8.11.7,2.58.07,5.2-.25,7.67.8,4.66,0,9.33-.01,13.99-.02,2.74-1.22,5.65-.64,8.5-.78,1.62-.08,3.29.28,4.82-.65.32-.19.8-.16,1.2-.15,5.61.14,10.99-1.22,16.43-2.35,2.38-.49,4.76-.94,7.11-1.58,1.41-.38,2.99-.16,4.49-.21-.18.79-.26,1.62-.57,2.35-.3.71-1.34,1.21-.99,2.09.29.72.98,1.29,1.53,1.89.81.91,1.65,1.79,2.48,2.69-.24.67-.65,1.31-1.32,1.48-2.74.72-5.39,1.67-8.27,1.94-3.07.29-6.16.64-9.19,1.4-2.09.52-4.38-.09-6.4.98-4.25-.4-8.34,1.24-12.6.93-2.01-.15-4.06-.3-6.05.64-.79.37-1.89.12-2.85.13-11.52,0-23.04,0-34.56,0-1.49,0-2.95.07-4.43-.58-.93-.41-2.15-.17-3.24-.23-2.98-.15-6.02.46-8.91-.78-.24-.1-.54-.06-.82-.04-2.49.18-4.9-.21-7.15-1.29-.93-.44-1.87-.34-2.81-.39-1.12-.07-1.23-.87-1.34-1.71,1.18-2.03,3.5-2.47,5.28-3.61,2.45-1.57,5.3-2.54,7.97-3.76Z"/><path class="cls-20" d="m302.18,240.97c-2.71-1.68-10.68-5.17-12.9-5.69-.88-.21-1.56.24-2.34.46-3.97,1.11-3.93,1-7.43-1.16-1.08-.66-2-1.42-2.87-2.28-2.15-2.13-4.28-4.28-6.42-6.41-1.54-1.53-2.94-3.2-5.28-3.65-1.24-.24-2.07-1.12-2.6-2.4-.75-1.82-.86-1.77.93-3.23.32-.26.64-.53.91-.84,1.13-1.32,2.42-1.48,4.06-.95,2.62.84,5.16,1.92,7.4,3.42,4.76,3.18,9.67,6.08,14.59,8.99,2.89,1.71,6.02,3.22,8.5,5.62.28.27.68.54,1.06.58,3.67.39,6.53,2.67,9.7,4.2,3.38,1.64,6.76,2.58,10.59,2.56,4.69-.02,9.23-.45,13.6-2.19.25-.1.51-.29.76-.29,3.39.01,5.89-2.02,8.26-3.97,2.41-1.98,4.67-4.16,5.95-7.22,1.37-3.27,3.15-6.36,4.75-9.53,3.85,2.36,4.18,6.48,4.9,10.28.75,3.95-1.19,7.8-.83,11.79.03.35-.24.79-.49,1.09-1.13,1.36-1.85,3.02-3.24,4.2-1.14.96-2.1,2.15-3.45,2.87-1.12,2.97-3.61,2.9-6.15,2.81-1.92-.07-3.85,0-5.77-.02-.82,0-1.79.2-2.44-.15-1.44-.77-2.92-.73-4.41-.65-1.43.08-2.7-.27-3.93-.92-.48-.25-.97-.64-1.48-.67-4.13-.25-7.86-1.95-11.77-3.03-2.06-.56-4.1-1.54-6.36-1.18-2.07-.49-3.95-1.44-5.8-2.45Z"/><path class="cls-19" d="m319.53,171.58c-2.01,1.3-4.27.94-6.4.71-1.71-.19-3.36-.96-5.03-1.49-2.58-.82-5.1-1.98-7.73-2.4-5.13-.82-9.93-2.6-14.76-4.35-.87-.31-1.58-1.35-2.42-1.42-2.08-.18-1.95-1.99-2.03-3.02-.07-.92.13-2.19.58-3.14.59-1.24,1.54-2.3,3.17-2.22.14,0,.27,0,.41,0,1.91,0,3.76.08,5.64.72,1.77.6,3.77-.2,5.66.58,1.87.77,4.08.13,5.95,1.16,4.68.05,8.95,2.05,13.47,2.82,3.72.64,7.43,1.3,11.13,2.08,3.82.8,7.79.77,11.64,1.64,1.44.33,3.01.05,4.52.1,2.3.08,4.67-.4,6.86.76,4.25.22,8.42.2,12.35-1.96,1.4-.77,2.43-2.28,4.29-2.27.4,0,.99-.6,1.17-1.05.48-1.21,1.39-2.03,2.28-2.87,2.1-1.97,3.95-4.14,5.39-6.65.54.26.82.66.82,1.28,0,1.09.04,2.14.54,3.2.54,1.15.54,2.32-.83,3.19-.8.51-.48,1.42-.15,2.23,1.37,3.28-.11,5.53-3.02,6.5-6.41,2.15-12.89,4.24-19.78,4.26-.55,0-1.2-.13-1.63.11-1.81,1.04-3.75.62-5.65.69-1.79.06-3.57.02-5.36.02-.61,0-1.02.29-1.28.83-.75.04-1.51.08-2.26.12-5.85-.04-11.71-.08-17.56-.12Z"/><path class="cls-34" d="m279.06,93.13c-1.71,1.09-3.1,2.62-5.04,3.44-1.05.45-1.18,2.21-2.65,2.29-1.1.06-2.3-.24-3.27.11-2.53.93-5.11.75-7.69.74-.86,0-1.58.25-2.34.6-.63.29-1.06-.01-.75-.74.32-.77-.07-1.24-.45-1.84-1.29-2.09-1.35-2.22.48-3.64,1.24-.97.24-.77-.31-1.02-1.13-.51-1.16-.86-.5-1.76,2.64-3.59,6.56-5.39,10.47-6.93,3.42-1.35,6.7-2.96,10.04-4.43,5.96-2.62,11.61-5.9,17.39-8.89,6.99-3.62,13.6-7.92,20.74-11.25,2.71-1.26,5.44-2.47,8.18-3.67.19-.08.56.03.73.19.32.3.37.73.05,1.08-.93,1.01-1.84,2.04-2.85,2.96-.93.85-.98,1.9-.93,3.01-3.78,3.33-7.83,6.34-11.27,10.04-2.42,2.61-5.2,4.78-8.19,6.68-.59.38-1.08.84-1.11,1.61-3.31,2.16-6.62,4.32-9.93,6.48-.69-.1-1.28.14-1.89.45-2.95,1.52-5.93,2.98-8.9,4.47Z"/><path class="cls-46" d="m83.38,217.64c.41.05.82.1,1.23.15.81.09,2.15-.06,2.31.3.37.85-.27,1.81-.95,2.47-3.05,2.95-5.59,6.35-8.45,9.47-4.95,5.4-10.01,10.7-14.13,16.87-3.09,4.62-6.19,9.25-9.27,13.88-.15.23-.3.46-.41.71-1.73,3.99-4.25,7.58-5.81,11.65-.77,2.02-1.45,4.08-2.23,6.11-.41,1.08-.16,2.17-.25,3.25-.14,1.75.4,3.57-.67,5.22-.19.29-.14.82-.05,1.21.58,2.36,1,4.78,1.85,7.03,1.5,3.97,4.29,6.96,8,8.98,1.54.84,3.02,1.86,4.84,2.13.86.13,1.43.75,1.71,1.6-1.44,1.02-3.1.82-4.72.83-.53,0-1.08-.07-1.48.39-.22.25.84,1.17,1.46,1.2.95.04,1.91.04,2.86.04,5.59.02,11.19.03,16.78.05-1.45.99-3.15.86-4.75.86-5.22-.02-10.45-.06-15.67-.31-3.77-.18-7.22-1.6-10.27-3.81-4.33-3.13-6.18-7.6-6.48-12.78-.8-13.86,2.88-26.61,9.69-38.56,2.04-3.58,4.22-7.08,6.72-10.36,3.34-4.37,6.96-8.47,11.12-12.1,5.49-4.79,10.93-9.62,16.39-14.45.18-.16.39-.51.34-.69-.12-.42-.55-.5-.95-.49-.68.03-1.37.07-2.05.11.26-.53.68-.78,1.27-.8.67-.02,1.35-.09,2.02-.13Z"/><path class="cls-35" d="m83.38,217.64c-.67.05-1.35.11-2.02.13-.6.02-1.02.27-1.27.8-2.5,1.16-5.3,1-7.91,1.8-2.85.88-5.75,1.57-8.56,2.63-1,.38-2.1.47-3.16.7-1.79-.23-3.45.04-5.2.6-4.25,1.34-8.68,1.97-13.06,2.8-4.67.88-9.26.35-13.88.56-.37.02-.84-.15-.85-.69,0-.25.02-.59.17-.75.57-.59,1.11-1.42,1.81-1.61,3.66-1,6.88-3.22,10.7-3.76,3.74-.53,7.33-1.71,11.07-2.35,3.94-.68,7.96-1.17,11.8-2.73,2.27-.92,4.37-1.92,6.4-3.27,2.49-1.65,5.12-3.13,7.81-4.41,3.7-1.75,7.24-3.82,10.53-6.18,2.14-1.54,4.59-2.32,6.82-3.55,1.83-1.01,4.3-.59,6.43-.13,1.35.29,1.79,1.81,2.01,2.91.58,2.91.39,5.84-2.21,7.85-2.78,2.15-5.27,4.72-8.62,6.11-2.39.99-4.72,2.14-7.42,1.88-.6-.06-1.06.18-1.41.66Z"/><path class="cls-32" d="m317.88,21.28c-2.13-1.72-4.89-1.47-7.3-2.33-2.03-.72-4.18-1.08-6.3-1.54-.79-.17-1.62-.23-2.43-.24-2.2-.03-4.4-.01-6.59-.01-.41,0-.86-.11-1.23.02-3.81,1.31-7.95,1.56-11.52,3.57-1.35.76-2.93.42-4.25,1.31-1.11.75-2.43,1.23-3.71,1.67-2.67.92-5.47,1.53-8.04,2.67-1.3.58-2.67.44-3.92,1.04-1.93.94-4.11,1.13-5.97,2.47-1.71,1.24-4.25.93-5.86,2.62-6.72,2.4-12.48,6.56-18.57,10.13-3.16,1.86-6.48,3.47-9.7,5.23-.95.52-1.83,1.18-2.77,1.73-2.1,1.21-3.93,2.97-6.47,3.33-2.98,2.17-6.7,2.9-9.66,5.18-1.59,1.23-3.62,1.88-5.45,2.78-.02-.33-.05-.66-.07-.99,3.1-3.48,6.56-6.54,10.44-9.14.78-.53,1.43-1.28,2.08-1.98,4.17-4.45,8.92-8.1,14.37-10.86,4.53-2.29,9.04-4.63,13.48-7.08,5.42-2.99,11.08-5.44,16.91-7.47,5.68-1.98,11.25-4.32,17.12-5.76,3.06-.75,6.15-1.28,9.32-1.3,3.28-.02,6.55-.13,9.84-.48,5.02-.54,10.13-.75,15.04,1.16,1.26.49,2.66.73,4.01.83,2.66.18,5.05,1.04,7.27,2.45-.02.33-.05.66-.07.99Z"/><path class="cls-39" d="m309.62,316.08c-.41-.15-.84-.5-.7-.86,1-2.55,1.78-5.13,1.57-7.93-.07-.89.67-1.48,1.28-2.02,1.18-1.05,1.41-2.29.92-3.71-.13-.39-.52-.76-.5-1.11.3-4.01-1.82-7.36-3.15-10.85-1.29-3.41-2.97-6.73-5.12-9.76-.64-.91-1.36-1.7-2.1-2.5-.56-.61-1.2-1.14-1.73-1.76-1.81-2.09-3.21-4.27-2.91-7.31.38-3.84-1-7.5-1.86-11.17-.86-3.66-1.5-7.45-3.61-10.74-.33-.52-.21-1.33-.3-2,4.18,3.98,7.38,8.73,10.71,13.4,1.63,2.29,3.03,4.73,4.85,6.92,1.47,1.77,2.51,3.92,3.36,6.11,3.41,8.82,6.31,17.82,8.13,27.1,1.02,5.21,2.1,10.47,1.78,15.88-.32,5.4-3.63,9.77-8.94,11.51.94-1.88,2.45-3.22,4.22-4.27.97-.57,1.98-1.25,2.21-2.29.3-1.37,1.03-2.5,1.5-3.76.19-.49.37-1.11.23-1.58-.55-1.83-.83-3.67-.87-5.58-.01-.66-.63-.33-.88-.12-.62.53-1.37,1.03-1.73,1.72-1.5,2.85-4.05,4.65-6.37,6.69Z"/><path class="cls-16" d="m261.32,846.41c-.69,0-1.98.41-1.94,1.2.04.67.25,1.34.32,2.01.11,1.09.41,2.22.21,3.26-.37,2.03-.47,4.08-.8,6.09-.3,1.85-1.17,3.63-1.95,5.37-1.57,3.52-3.38,6.89-6.16,9.65-.97.96-1.72,2.13-2.62,3.16-2.93,3.36-6.57,5.84-10.51,7.79-4.41,2.17-8.97,4.03-13.46,6.04-.22.1-.37.37-.55.56l-.85.15c-6.32-.02-12.65.02-18.97-.11-1.44-.03-2.6.77-3.97.8-.46.01-.8-.2-.87-.65-.04-.24,0-.59.16-.75,1.3-1.36,2.89-1.91,4.79-1.85,3.56.1,6.98-.88,10.39-1.71,1.7-.42,3.32-1.19,4.92-1.92,4.7-2.16,9.51-4.16,14.03-6.66,4.63-2.56,9.21-5.33,12.82-9.36.91-1.02,1.82-1.99,2.53-3.19,1.94-3.27,4.65-6,6.75-9.2,1.88-2.87,3.23-5.67,2.83-9.14-.05-.41,0-.82.01-1.24.02-1.12.83-1.26,1.68-1.36,1.29,0,2.09,1.48,1.2,1.07Z"/><path class="cls-41" d="m319.53,171.58c5.85.04,11.71.08,17.56.12-.51.57-1.19.6-1.88.61-3.16.03-6.32.04-9.47.09-.96.02-1.92.16-2.87.22-.35.02-.56.16-.51.48.04.25.1.61.27.69,2.82,1.45,5.43,3.21,7.93,5.15,6.56,5.1,12.25,11.05,17.04,17.83,3.16,4.48,6.31,8.98,9.02,13.78,3.58,6.34,5.55,13.13,6.48,20.25.48,3.72-.09,7.41-1.53,10.91-.31.76-.67,1.51-1.46,1.92-.53-1.16,1-2.13.47-3.11-.81-1.47-.6-2.56.51-3.68.27-.27.51-.72.5-1.08-.04-2.59.4-5.21-.24-7.77-.85-3.4-1.7-6.81-3.05-10.06-.52-1.25-1.09-2.49-1.59-3.75-.19-.49-.16-1.19-.91-1.07-.3.05-.54.5-.8.77-.64.68-.59,1.86-1.61,2.27-1.28-2.08-3.6-3.45-4.18-5.97-.62-2.69-2.13-5-3.46-7.27-1.31-2.24-2.62-4.67-5.25-6.09-2.6-1.4-4.79-3.56-7.22-5.28-2.21-1.56-4.54-2.96-6.77-4.5-2.13-1.46-4.26-2.92-6.27-4.53-1.16-.93-2.28-2.05-3.04-3.31-.66-1.09-1.55-1.89-2.35-2.82-.52-.62-1.73-1.24-1.42-1.84.44-.86,1.59-1.33,2.73-1.32.96.01,1.92.03,2.88,0,1.78-.06.44-1.07.49-1.65Z"/><path class="cls-42" d="m40.46,73.37c-.08.53,0,1.27-.62,1.4-1.91.4-3.49,1.5-5.22,2.28-3.26,1.48-6,3.7-8.59,6.13-1.09,1.02-2,2.25-3.48,2.81-.36.14-.68.48-.93.8-2.49,3.21-5.48,5.99-7.64,9.51-1.77,2.89-3.29,5.89-4.82,8.89-1.3,2.55-2.2,5.26-3.05,7.97-.79,2.53-.22,5.16-.3,7.75-.01.37.2.84.46,1.1,2.6,2.54,4.49,5.93,8.13,7.23,2.9,1.04,5.73,2.3,8.85,2.76,1.39.21,2.9.46,3.99,1.59-2.87,0-5.75-.01-8.62,0-1.09,0-2.17.1-3.26.15.57,1.22,1.92,1.28,2.87,1.93.73.5,1.58.35,2.39.39.71.03,1.35.15,1.71.87.27.55.79.69,1.35.75,5.37.53,10.54,2.24,15.94,2.58.29.02.55.52.83.79-3.56.27-7.02-.5-10.48-1.15-3.46-.65-6.91-1.29-10.34-2.14-2.69-.67-5.12-1.63-7.26-3.37-.3-.44-.52-1.01-.92-1.31-2.91-2.17-3.64-6-6.36-8.33-.47-.4-.83-1.2-.85-1.82-.05-1.44-.62-2.56-1.44-3.71-1.03-1.45.35-2.84.42-4.28.03-.5-.35-1.01-.51-1.53-.63-2.02-.28-3.77,1.48-5.1.54-.41,1.06-.86,1.64-1.21.91-.55.88-1.3.49-2.1-.17-.36-.47-.69-.77-.95-1.59-1.36-1.66-2.83-.88-4.76.58-1.44,1.48-2.97,1.02-4.7.15-.51.15-1.29.48-1.49,1.02-.62,1.08-1.85,1.88-2.57,1.13,0,1.59-.95,2.27-1.58,2.41-2.2,4.39-4.87,7.28-6.54.27-.16.31-.71.46-1.08.87-1.78,3.24-1.32,4.27-2.86,5.33-1.85,10.71-3.55,16.11-5.19.61-.18,1.34.03,2.02.06Z"/><path class="cls-24" d="m339.35,171.58c.26-.54.67-.83,1.28-.83,1.79,0,3.58.04,5.36-.02,1.89-.07,3.84.35,5.65-.69.42-.24,1.08-.11,1.63-.11,6.89-.02,13.37-2.11,19.78-4.26,2.91-.97,4.39-3.22,3.02-6.5-.34-.81-.65-1.72.15-2.23,1.37-.87,1.37-2.04.83-3.19-.5-1.06-.54-2.11-.54-3.2,0-.62-.28-1.02-.82-1.28.27-.83,1-1.51.83-2.48,2.35-1.52,2.71-1.98,3.36-4.08.12-.37.31-.76.58-1.03.94-.96,1.89-1.92,2.91-2.8.5-.44,1.03-.16,1.32.36.59,1.05,1.16,2.12,1.65,3.22.24.54.54.9,1.14.95,1.93,4.19,2.37,8.65,2.43,13.18.04,3.04-1.55,5.21-4.1,6.64-1.55.87-3.17,1.7-4.87,2.19-8,2.32-15.97,4.69-24.34,5.51-5.75.56-11.47.78-17.22.64Z"/><path class="cls-26" d="m40.45,141.07c-.28-.28-.54-.77-.83-.79-5.4-.34-10.58-2.05-15.94-2.58-.56-.06-1.08-.2-1.35-.75-.36-.72-1-.84-1.71-.87-.81-.04-1.66.11-2.39-.39-.95-.66-2.3-.72-2.87-1.93,1.09-.05,2.17-.14,3.26-.15,2.87-.02,5.75,0,8.62,0,2.8-.25,5.53.24,8.25.83.26.53.68.82,1.29.82,1.65,0,3.33-.2,4.95.05,4.7.71,9.34,1.75,14.13,1.66.14,0,.31-.02.41.05,1.86,1.28,4.14.18,5.99.98,2.16.94,4.34.55,6.5.53,1.57-.02,2.94.48,4.38.87.26.07.51.18.76.27-.16.19-.32.4-.49.58-1.2,1.28-3.29,1.46-4.04,3.29-.74.15-.86.2-.53.94.23.51.04.73-.21,1.01-.63.72-1.39,1.23-2.29,1.62-3.44,1.52-6.65,3.51-10.2,4.84-1.96.73-3.67,2.14-5.88,2.28,2.05-2.14,4.85-3.02,7.35-4.39,2.29-1.26,4.67-2.35,6.69-4.03.26-.21.3-.71.38-1.08,0-.04-.44-.23-.69-.26-3.14-.3-6.3-.44-9.42-.89-4.72-.67-9.49-1.09-14.1-2.46Z"/><path class="cls-28" d="m76,311.15c-5.59-.02-11.19-.03-16.78-.05-.95,0-1.91,0-2.86-.04-.62-.03-1.68-.95-1.46-1.2.39-.46.95-.39,1.48-.39,1.62,0,3.28.19,4.72-.83,4.11.39,7.98-.36,11.56-2.47.41,1.03,1.35.99,2.09.77,1.94-.57,4-.95,5.61-2.31.96-.82,2.04-1.44,3.23-1.7,4.32-.96,8.04-3.11,11.64-5.55.33-.23.74-.35,1.11-.53,5.26-2.65,10.09-5.92,14.31-10.05.48-.47,1.03-.9,1.62-1.24,2.5-1.45,4.66-3.31,6.66-5.39,2.96-3.07,6.72-5.08,10.15-7.53,1.88-1.34,3.93-2.44,5.63-4.03.34-.32,1.01-.29,1.53-.42-.92,1.75-2.54,2.86-3.95,4.13-3.77,3.41-7.64,6.7-11.45,10.06-4.94,4.37-9.86,8.76-14.78,13.15-2.06,1.84-4.4,3.28-6.78,4.66-3.44,1.99-6.9,3.96-10.36,5.92-3.34,1.89-6.7,3.77-10.47,4.72-.79.2-1.62.22-2.43.33Z"/><path class="cls-29" d="m226.39,285.36c-1.58-1.71-3.42-3.12-5.17-4.63-2.36-2.03-4.39-4.44-6.56-6.69-.2-.35-.35-.76-.62-1.04-6.74-7.08-12.65-14.76-17.67-23.17-3.02-5.05-6.07-10.1-9.26-15.04-3.23-5.01-2.54-5.67-7.63-1.28-5.08,4.38-10.46,8.42-15.64,12.69-4.23,3.49-8.35,7.1-12.53,10.65-1.45,1.24-2.92,2.46-4.38,3.69-2,.69-3.33,2.35-5.02,3.49-1.02.68-1.86,1.63-3.11,1.94.74-1.93,1.94-3.53,3.39-4.99,3.17-3.21,6.42-6.27,10.21-8.8,2.59-1.72,4.86-3.96,7.14-6.11,2.89-2.73,5.64-5.62,8.47-8.43,2.52-2.5,4.86-5.2,8.17-6.75,1.59-.74,2.02-2.53,3.12-3.73.82-.9,1.12-.95,1.98-.19,1.02.9,1.82,2,3.16,2.58.98.43,1.57,1.42,2.2,2.36,4,5.99,7.96,12,11.56,18.25.34.58.83,1.08,1.27,1.6.36.41.93.72,1.13,1.19,1.37,3.37,4.26,5.61,6.25,8.53,2.13,3.14,4.68,6,7.06,8.97,4.57,5.7,10.04,10.48,15.03,15.74.55.58,1.3,1.05,1.34,1.98-1.83-.2-2.42-2.12-3.9-2.81Z"/><path class="cls-23" d="m309.62,316.08c2.32-2.04,4.87-3.85,6.37-6.69.36-.69,1.11-1.2,1.73-1.72.25-.21.86-.54.88.12.04,1.91.32,3.75.87,5.58.14.47-.04,1.09-.23,1.58-.48,1.26-1.2,2.39-1.5,3.76-.23,1.04-1.24,1.72-2.21,2.29-1.77,1.05-3.28,2.38-4.22,4.27-2.67,2.21-6.01,2.67-9.21,3.04-4.92.58-9.83.04-14.64-1.37-7.12-2.09-13.96-4.91-20.68-8.01-4.1-1.89-7.72-4.64-11.08-7.69.41,0,.91-.18,1.22,0,2.71,1.57,5.39,3.18,8.06,4.83,3.02,1.87,6.25,3.41,9.52,4.61,4.69,1.72,9.28,3.78,14.23,4.86,3.03.66,6,.23,8.99.42.74.05,1.26-.48,1.75-.97,1.47-1.45,3.15-2.56,5.14-3.18,1.5-.46,1.9-1.69,2.09-3.07.08-.54-.28.35-.38-.19.21-.57.65-.8,1.23-.83,1.07-.06,1.71-.67,2.07-1.64Z"/><path class="cls-27" d="m52.85,32.84c1.62.79,3.34,1.46,4.12,3.3.13.52.13,1.12.41,1.54,1.47,2.3,3.35,4.12,5.54,5.84,3.83,3.01,7.26,6.49,11.54,8.99,3.02,1.77,5.81,3.96,8.54,6.16,2.76,2.23,5.71,4.13,8.66,6.05.54.35,1.35,1.29,1.23,1.49-.49.83-1.16-.19-1.69-.1-1.16.2-2.72.33-3.31,1.1-1.1,1.42-2.38,1.03-3.67,1.14-.37-.08-.93-.05-1.06-.27-.36-.6.29-.45.57-.55.24-.08.56-.04.75-.18.76-.57.5-1.06-.18-1.48-.49-.21-1.05-.33-1.47-.64-4.33-3.29-8.89-6.27-12.93-9.96-5.02-4.59-10.17-9.05-15.25-13.57-.4-.36-.73-.8-1.09-1.2.05-1.13-.96-1.57-1.51-2.3-1.12-1.49-1.15-2.37-.1-4.03.29-.45.61-.89.91-1.33Z"/><path class="cls-38" d="m387.46,143.41c-.6-.05-.89-.4-1.14-.95-.49-1.1-1.06-2.17-1.65-3.22-.29-.52-.82-.8-1.32-.36-1.01.88-1.97,1.84-2.91,2.8-.27.28-.47.66-.58,1.03-.65,2.1-1.01,2.56-3.36,4.08.26-3.42-.22-6.77-.84-10.11-.07-.4-.08-.87-.31-1.16-1.77-2.23-2.79-4.93-4.99-6.93-3.03-2.74-5.85-5.65-9.62-7.47-2.06-.99-3.5-2.96-5.42-4.27-2.13-1.45-4.18-2.98-6.52-4.11-3.79-1.83-7.45-3.92-11.41-5.4-1.09-.4-2.41-.62-2.96-1.91,1.3-.13,2.42.47,3.54.93,4.81,1.98,9.57,4.07,14.08,6.7,5.08,2.97,10.16,5.92,15.51,8.43,8.62,4.04,14.74,10.76,19.04,19.2.44.87.79,1.75.85,2.72Z"/><path class="cls-25" d="m353.39,216.16c1.02-.41.97-1.59,1.61-2.27.26-.27.5-.73.8-.77.75-.12.72.58.91,1.07.5,1.26,1.07,2.5,1.59,3.75,1.35,3.25,2.2,6.66,3.05,10.06.64,2.56.2,5.18.24,7.77,0,.36-.24.81-.5,1.08-1.11,1.12-1.32,2.21-.51,3.68.54.97-1,1.94-.47,3.11-2.4,4.64-6.5,6.87-11.38,7.87-2.27.47-4.61.65-6.92.9-3.74.4-7.45-.22-10.99-1.16-7.67-2.03-15.16-4.7-22.58-7.51-.11-.04-.17-.21-.25-.32,2.25-.36,4.3.62,6.36,1.18,3.91,1.07,7.64,2.78,11.77,3.03.51.03,1,.42,1.48.67,1.23.64,2.51.99,3.93.92,1.49-.08,2.97-.12,4.41.65.65.35,1.62.14,2.44.15,1.92.01,3.85-.05,5.77.02,2.54.09,5.03.16,6.15-2.81,1.35-.72,2.31-1.91,3.45-2.87,1.4-1.18,2.11-2.84,3.24-4.2.25-.3.52-.74.49-1.09-.36-3.98,1.58-7.84.83-11.79-.72-3.81-1.05-7.92-4.9-10.28v-.84Z"/><path class="cls-44" d="m32.94,166.41c-1.3,2.4-3.08,4.5-4.97,6.38-2.66,2.64-4.07,5.82-4.77,9.31-.34,1.71-1.08,2.87-2.51,3.44-2.68,1.07-4.37,3.25-6.35,5.13-1.02.98-1.82,2.21-1.88,3.55-.13,2.98-1.16,5.66-2.68,8.06-1.87,2.93-1.48,6.03-1.51,9.16,0,.27,0,.58.13.8,1.77,3.21,2.77,6.87,5.7,9.41,1.27,1.1,2.33,2.32,4.26,1.99.46-.08,1.18.16,1.48.51,1.54,1.78,3.65,2.25,5.76,2.81.32.08.53.55.79.84-5.38-.43-10.51-1.7-15.13-4.62-.35-.22-.71-.42-1.04-.66-4.12-3.04-5.57-6.92-4.3-11.88.57-2.22,1.61-4.33,1.17-6.75-.11-.61.24-1.34.5-1.97,1.9-4.69,3.63-9.44,6.07-13.9,1.59-2.91,3.68-5.45,5.81-7.94,3.75-4.36,7.53-8.7,11.74-12.63.51-.47,1.01-.93,1.73-1.03Z"/><path class="cls-33" d="m299.79,81.73c.04-.77.52-1.23,1.11-1.61,2.99-1.91,5.77-4.08,8.19-6.68,3.44-3.7,7.49-6.72,11.27-10.04,2.75-1.85,4.67-4.24,5.06-7.65,1.08-.74.09-2.52,1.53-3.08.23.57.64.89,1.24.65,1.6-.65,3.17-1.38,4.78-2.02,1.21-.48,1.31.4,1.41,1.25-1.05,4.29-3.64,7.64-6.89,10.39-3.56,3.01-6.79,6.39-10.57,9.16-2.99,2.19-5.97,4.37-9.35,5.96-2.6,1.22-5.19,2.45-7.79,3.67Z"/><path class="cls-45" d="m334.38,52.54c-.09-.84-.2-1.73-1.41-1.25-1.61.64-3.18,1.37-4.78,2.02-.6.24-1.01-.08-1.24-.65-.17-3.71,1.27-7.16,1.78-10.77.11-.8,1.74-.96,1.28-1.83-.81-1.53-.19-3.26-.99-4.74-.64-1.19-1.13-2.45-1.52-3.76-.3-1.01-.85-1.99-1.69-2.76-1.41-1.29-2.62-2.87-4.19-3.92-1.5-1-1.88-3.06-3.75-3.59.02-.33.05-.66.07-.99.88.04,1.53.49,2.13,1.09,3.06,3.12,6.17,6.19,9.18,9.37,3.69,3.9,5.91,8.48,5.96,13.96.02,2.05.06,4.1.04,6.15,0,.66-.09,1.38-.87,1.68Z"/><path class="cls-43" d="m179.24,46.84c-1.35.2-2.3-.75-3.4-1.23-2.12-.92-4.15-2.11-6.56-2.02-.9.03-1.57-.35-2.19-.94-2.37-2.26-5.59-3.43-7.73-6-.24-.29-.69-.42-1.07-.57-3.14-1.25-5.67-3.34-7.76-5.9-3.19-3.92-7.74-5.97-11.7-8.83-1.17-.85-2.53-1.46-3.35-2.74,5.14.92,9.48,3.57,13.36,6.82,4.64,3.88,9.86,6.86,14.8,10.27,5.05,3.49,10.1,6.99,15.15,10.5.21.14.31.43.46.66Z"/><path class="cls-30" d="m279.06,93.13c2.97-1.48,5.95-2.95,8.9-4.47.62-.32,1.2-.55,1.89-.45-.77,1.83-2.56,2.33-4.1,3.19-1.25.7-2.83.93-3.61,2.35,1.37.09,2.73.24,4.1.26,2.88.05,5.77.12,8.65.02,2.9-.1,5.7.57,8.55.91.8.09,1.65.32,2.34.73,2.54,1.5,5.39,1.84,8.2,2.34,1.49.26,2.95.55,4.14,1.6-2.1.54-3.94-.78-6-.89-1.27-.07-2.73-.32-3.94-.76-2.15-.79-4.29-.69-6.46-.69-6.86-.02-13.71.05-20.57-.05-1.63-.02-.34-.69-.04-1.05.49-.59.23-1.15-.32-1.25-1.07-.2-1.83-.53-1.73-1.78Z"/><path class="cls-31" d="m52.85,32.84c-.31.44-.63.88-.91,1.33-1.05,1.65-1.02,2.54.1,4.03.55.73,1.56,1.17,1.51,2.3-2.89-1.26-5.23-3.38-7.61-5.31-2.04-1.65-2.69-4.34-2.98-6.95-.13-1.2.03-2.44.07-3.66.26.29.55.56.77.88.98,1.38.98,1.39,2.49.75.25-.1.48-.26.74-.34,1.24-.4,2.55-1.5,3.72-.82.99.57.11,2.38,1.09,3.33-.66,1.72.25,3.08,1.01,4.47Z"/><path class="cls-1" d="m5.69,94.61c.47,1.73-.43,3.26-1.02,4.7-.78,1.93-.71,3.4.88,4.76.31.26.6.59.77.95.39.8.42,1.54-.49,2.1-.58.35-1.1.8-1.64,1.21-1.76,1.33-2.11,3.08-1.48,5.1.16.52.54,1.03.51,1.53-.08,1.44-1.46,2.83-.42,4.28.82,1.15,1.39,2.26,1.44,3.71.02.63.38,1.42.85,1.82,2.72,2.32,3.45,6.16,6.36,8.33.41.3.62.87.92,1.31-1.29.13-1.93-.89-2.73-1.59-2.48-2.14-5.09-4.19-5.71-7.71-1.83-2.17-2.28-4.9-3.03-7.51-.37-1.28-1-2.52-.23-3.91.23-.41.22-1.17-.02-1.59-1.21-2.17-.49-4.29.18-6.33,1.27-3.86,2.52-7.74,4.85-11.14Z"/><path class="cls-14" d="m331.22,872.1c-.15-1.09-.24-2.11.57-3.08,1.35-1.6,2.35-3.28,1.06-5.51-.36-.62-.05-1.61-.13-2.42-.05-.52-.08-1.2-.4-1.52-1.88-1.89-2.8-4.66-5.55-5.81-.85-.35-1.65-.74-2.55-1.02-1.89-.59-3.76-1.4-5.46-2.43-1.86-1.14-3.75-2.07-5.88-2.52-.31-.07-.53-.55-.79-.83,1.38-.09,2.68.17,3.97.71,4,1.67,8.05,3.25,12.05,4.92,3.37,1.4,5.83,3.96,8.13,6.67,1.23,1.46,1.61,2.98.49,4.83-1.69,2.78-3.02,5.79-5.51,8.02Z"/><path class="cls-7" d="m255.93,842.89c-2.62-4.42-5.19-8.87-9.06-12.38.37-.72.96-1.04,1.44-.28.48.76.99,1.16,1.87,1.1.71.02,1.34.21,1.86.73.88.87,1.76,1.74,2.67,2.57,1.96,1.79,3.5,3.82,3.76,6.58-.44,1.17-1.25,1.78-2.54,1.68Z"/><path class="cls-37" d="m198.08,59.93c.02.33.05.66.07.99-.55.03-1.22-.14-1.62.12-1.9,1.23-3.22.51-4.63-.94-1.81-1.86-3.06-4.15-4.97-5.95-1.87-1.75-3.98-3.34-5.26-5.67,3.21.98,5.44,3.48,8.09,5.32,2.12,1.47,4.12,3.11,5.85,5.05.66.74,1.37,1.32,2.46,1.08Z"/><path class="cls-40" d="m18.06,81.36c-.15.37-.19.92-.46,1.08-2.9,1.67-4.88,4.34-7.28,6.54-.68.62-1.15,1.59-2.27,1.58,2.05-4.47,5.35-7.57,10.02-9.19Z"/><path class="cls-18" d="m84.21,68.35c1.29-.11,2.58.28,3.67-1.14.6-.77,2.15-.9,3.31-1.1.53-.09,1.2.93,1.69.1.12-.2-.69-1.13-1.23-1.49-2.95-1.92-5.91-3.83-8.66-6.05-2.73-2.2-5.52-4.39-8.54-6.16-4.28-2.5-7.71-5.97-11.54-8.99-2.19-1.72-4.07-3.54-5.54-5.84-.27-.43-.28-1.02-.41-1.54,3.67,1.84,6.94,4.3,10.27,6.65,2.9,2.05,5.96,3.7,9.18,5.16,4.84,2.2,9.63,4.53,14.44,6.79,3.8,1.78,7.61,3.55,11.41,5.32.99.46,1.97.83,3.1.95,1.18.13,2.56.44,3.42,1.17,1.34,1.15,2.96,1.34,4.44,1.97,2.86,1.23,5.73,2.38,8.47,3.9,2.97,1.64,6.12,2.98,9.26,4.29,1.85.77,2.79,2.23,3.37,3.91.55,1.59.54,3.25-1,4.49-.55.44-1.08.87-1.82.81-2.43-.2-4.92.53-7.32-.58-.7-.32-1.61-.22-2.43-.22-1.25,0-2.4-.19-3.58-.7-1.74-.76-3.75-.7-5.53-1.26-7.62-2.4-15.35-4.45-22.74-7.55-1.98-.83-4.14-1.26-5.71-2.88Z"/><path class="cls-17" d="m69.36,143.49c.75-1.83,2.84-2.01,4.04-3.29.17-.18.33-.39.49-.58-.25-.09-.5-.2-.76-.27-1.44-.39-2.81-.89-4.38-.87-2.16.02-4.33.41-6.5-.53-1.85-.8-4.13.31-5.99-.98-.1-.07-.27-.05-.41-.05-4.79.1-9.44-.95-14.13-1.66-1.61-.24-3.3-.05-4.95-.05-.61,0-1.03-.29-1.29-.82.34-.75.98-.86,1.7-.82,5.21.27,10.31-1.4,15.53-.83,4.97-1.51,10.08-.56,15.11-.82,1.23-.06,2.47.13,3.6-.6.31-.2.81-.26,1.19-.2,3.33.53,6.46-1.04,9.75-.86,1.53.09,2.79-1.07,4.39-.85,1.36.19,2.69-.47,3.98-.62,4.6-.51,9.08-1.49,13.54-2.61.26-.07.55-.04.82-.04,2.06,0,4.13-.1,6.19.02,1.88.11,3.68-.51,5.57-.27,1.81.23,3.08,1.85,2.51,3.41-.99,2.71-3.31,3.97-5.65,5.01-3.97,1.76-8.24,2.56-12.48,3.4-5.03,1-10.05,2.07-15.07,3.11-.13.03-.26.11-.39.1-3.86-.15-7.51.98-11.25,1.6-1.73.29-3.44.69-5.18.94Z"/><path class="cls-42" d="m52.02,293.93c0-.82-.03-1.65.02-2.47,0-.18.27-.48.42-.48.23,0,.56.14.68.33.44.68.75,1.46,1.23,2.12,1.96,2.74,3.44,5.91,6.74,7.46.35.16.62.54.87.86.15.2.3.49.26.72-.02.16-.34.35-.55.38-.4.06-.82-.03-1.23.02-5.06.5-9-3.35-8.46-8.53.01-.14,0-.27,0-.41h.01Z"/></g></svg>