<?xml version="1.0" encoding="UTF-8"?><svg id="Layer_2" xmlns="http://www.w3.org/2000/svg" viewBox="0 0 566.93 566.93"><defs><style>.cls-1{fill:none;}.cls-2{fill:#f47a52;}.cls-3{fill:#7c1e1e;}</style></defs><g id="Notes"><path class="cls-2" d="m419.48,282.54l.11-.15c-.52-2.28-.61-4.68-.72-7.03-.11-.61-1.21-3.3-.77-4.27-.94-3.95-1.17-8.07-2.36-11.96-.11-.11-.13-.27-.07-.42-2.22-7.92-4.47-15.83-7.77-23.33h.04c-1.3-3.14-3.01-6.09-4.38-9.22-1.5-2.26-2.97-4.5-4.47-6.77-.02.03-.03.07-.05.1l-.03-.08h.04c-4.6-5.42-9.66-10.5-14.84-15.31l-.22.06-.22-.04c0-.13-.02-.25-.04-.38-1.89-1.67-3.82-3.32-5.86-4.79-.14-.15-.27-.33-.41-.48-.31-.15-.59-.33-.9-.48-.79-.57-1.57-1.19-2.23-1.92-.88-.63-1.78-1.28-2.67-1.92-.16-.17-.31-.36-.47-.54-.32-.13-.63-.27-.95-.4-.43-.33-.88-.61-1.26-.98v-.04c-.32-.13-.63-.27-.94-.42-.14-.15-.29-.33-.43-.48-.16-.06-.32-.11-.49-.17-.14-.1-.31-.19-.45-.29-.14-.15-.27-.33-.41-.48-2.36-1.19-4.52-2.84-6.71-4.31-.16-.06-.32-.11-.51-.19-.14-.1-.31-.19-.45-.27l-.52-.13c-.27-.27-.52-.56-.79-.82-.11-.06-.22-.06-.32-.06-.04-.13-.09-.29-.14-.4-1.05-.52-2.11-1.03-3.14-1.57-.14-.11-.29-.23-.43-.34-.61-.31-1.21-.61-1.82-.92-.14-.04-.29-.1-.45-.13-.16-.11-.31-.25-.47-.36-2.11-1.07-4.24-2.11-6.26-3.39-.45-.17-.92-.36-1.37-.54-.14-.11-.29-.25-.43-.36-.45-.19-.9-.38-1.35-.57-.45-.29-.88-.57-1.33-.88-2-.71-3.8-1.94-5.88-2.47-.13-.13-.27-.27-.4-.38-1.06-.34-2.13-.69-3.19-1.05-.13-.13-.25-.27-.38-.4l-.04-.08c-1.59-.75-3.24-1.32-4.98-1.44-.13-.13-.23-.25-.36-.38-.92-.13-1.84-.25-2.78-.38-.14-.06-.31-.13-.45-.19-.27-.02-.56-.04-.83-.06-.16-.15-.33-.33-.47-.48-.16.04-.32.06-.49.1-.31-.13-.59-.25-.9-.38l-2.7-.11c-.14-.13-.31-.25-.45-.38-12.06-.42-24.16.33-35.96,3.14-.6.27-1.17.52-1.77.79-.58-.34-2.4.84-2.7,1.8-1.75.36-13.59,3.87-15.59,4.35-.22-.36-1.37-.1-1.57.44-3.32,2.66-8.06,5.81-11.54,8.13-3.19,2.47-6.09,5.46-9.5,7.55-2.96,2.64-5.93,5.27-8.83,7.97-.05.17-.11.35-.18.52-.29.1-.56.21-.85.31.02.11.04.23.04.34-.18.13-.32.31-.5.46-.13.15-.27.33-.4.48-3.35,3.49-6.71,6.98-9.99,10.52,0,.13-.02.29-.04.42l-5.32,7.09c-.69.56-1.37,1.13-2.06,1.71-1.78,4.56-5.48,7.95-7.81,12.21l-.04.06c-.23.34-.47.67-.74.98-.05.46-.13.9-.18,1.36h.02c-.16.29-.32.61-.5.94-.23.25-.47.5-.7.73-1.68,4.08-3.33,8.16-5.01,12.23-.11.67-.27,1.32-.45,1.95-.07,0-.14.02-.23.04-4.11,11.1-4.04,23.02-4.25,34.79l.16-.04c-.04.48-.07.96-.13,1.44.11.06.22.1.32.15-.05,4.1.49,8.18.99,12.25.11.17.23.34.34.52,0,.33,0,.65.02.96.76,3.18,1.41,6.4,2.25,9.54.11.11.14.25.07.4.07.17.16.34.23.52.2.92.47,1.82.7,2.72.09.21.2.42.29.65.04.17.07.33.11.5.11.06.14.15.07.27.13.38.23.77.36,1.15.11.1.14.21.07.34.5,1.44,1.05,2.84,1.46,4.31h-.04c6.38,16.77,14.96,32.91,26.82,46.02l.12.03c4.2,4.55,9.03,8.25,13.91,11.9-.69-.18-1.37-.37-2.04-.57-11.63-3.42-22.11-9.84-33.65-13.54-10.99-3.52-21.87-4.05-32.52.68-9.38,4.17-17.39,11.33-21.26,20.92-1.7,4.22,1.85,9.24,5.87,10.35,4.8,1.32,8.64-1.64,10.35-5.87,2.27-5.62,11.81-11.26,18.19-12.13,11.15-1.51,23.04,5.39,32.84,9.73,11.47,5.08,23.68,9.77,36.46,8.23,5.7-.69,10.81-2.71,14.87-5.89,5.42,1,10.65,2.8,16.18,2.97.76.25,25.72,2.84,35.48,2.84,14.91.27,29.08-5.46,42.2-12.36,6.31-3.3,12.17-7.46,17.94-11.71l-.05.06c10.15-7.63,19.09-17.08,26.9-27.35l.04-.02c3.93-7.8,8.96-15.01,11.05-23.71.09-.21.18-.4.27-.61,3.97-13.28,4.27-27.54,3.41-41.38Zm-142.18-109.86v-.02.02h0Z"/><path class="cls-3" d="m242.45,226.6l-.04.02c.7-.71,1.41-1.4,2.13-2.11,5.43-5.29,10.76-10.69,16.33-15.81,2.38-2.18,5.26-3.74,7.91-5.58.29-.42.59-.84.83-1.28.81-1.46,1.6-2.93,2.4-4.39-.49-2.3-1.51-4.18-3.61-5.25-2.67-.56-4.63,1.11-6.72,2.38-.9.63-1.78,1.28-2.69,1.92-.88.65-1.78,1.3-2.67,1.95-1.5,1.26-2.99,2.53-4.49,3.78-.59.48-1.21.98-1.8,1.46-2.97,2.86-5.97,5.73-8.94,8.59-.45.48-.92.98-1.37,1.46-.2.4-.34.88-.61,1.23-3.37,4.1-6.9,8.09-10.13,12.32-2.6,3.41-4.85,7.13-7.25,10.73-1.19,2.07-2.4,4.14-3.59,6.21-.29.48-.58.98-.87,1.46-.45.65-.92,1.28-1.37,1.94-1.05,2.7-2.09,5.39-3.14,8.09-.45,1.11-.88,2.24-1.33,3.35-.45,1.44-.9,2.86-1.35,4.29-.25,1.15-.56,2.3-.72,3.47-.99,6.46-2.07,12.9-2.85,19.4-.27,2.3,2.05,4.66,4.13,4.83,2.29.21,4.85-1.51,5.23-3.79.47-2.72.58-5.5,1.05-8.2,3.03-17.4,10.51-32.54,20.77-46.27,1.55-2.09,3.17-4.12,4.76-6.17Z"/><path class="cls-3" d="m267.51,238.87c.65-.65,1.32-1.26,1.91-1.95,2.04-2.38,4.06-4.77,6.08-7.17,2.02-2.49,3.89-5.12,6.06-7.46,2.81-3.05,5.86-5.85,8.82-8.76,2.09-1.74,4.2-3.49,6.29-5.25.45-.33.88-.67,1.33-1,.88-.65,1.75-1.28,2.63-1.94.92-.79,1.82-1.55,2.74-2.34,1.05-.96,2.11-1.92,3.16-2.87,1.14-3.14.31-5.77-1.86-8.05-1.62.13-3.25.27-4.87.42-1.8,1.28-3.59,2.55-5.39,3.83-.74.48-1.48.96-2.22,1.46-.74.63-1.5,1.28-2.24,1.92-.31.31-.63.61-.94.92v.46c-.6.42-1.23.8-1.79,1.28-2.11,1.8-4.18,3.64-6.27,5.48-.7.82-1.37,1.67-2.11,2.43-6.98,7.44-14.24,14.64-19.92,23.33-.58.61-1.28,1.13-1.71,1.84-2.79,4.39-5.57,8.78-8.28,13.22-6.36,10.45-11.27,21.66-14.94,33.43-5.23,16.73-7.73,33.93-6.94,51.6.11,2.34,2.07,4.5,4.45,4.91,1.8.31,4.51-1.28,4.87-3.34.36-2.03.04-4.2.18-6.31.38-5.44.79-10.89,1.26-16.31.92-10.64,3.53-20.83,7.01-30.8,3.97-11.35,9.23-22,15.63-32.03,2.34-3.66,4.71-7.3,7.05-10.96Z"/><path class="cls-3" d="m280.05,295.02c1.19-2.07,2.36-4.16,3.55-6.23,3.28-5.48,6.36-11.1,9.88-16.41,4.8-7.26,9.77-14.39,14.91-21.39,4.76-6.48,9.82-12.71,14.75-19.03.59-.63,1.19-1.26,1.78-1.9,3.01-3.33,6-6.69,9.01-10.02,1.19-1.28,2.38-2.55,3.57-3.83.14-.15.31-.33.45-.48,2.09-2.07,4.16-4.16,6.26-6.23.59-.63,1.21-1.26,1.8-1.9.61-.63,1.23-1.26,1.82-1.9,2.04-2.17,3.03-4.6,1.78-7.63l-.02-.08c-.45-.63-.9-1.25-1.35-1.88-1.93-1.42-3.88-1.05-5.8,0-.18.25-.34.52-.56.73-4.07,4.04-8.17,8.09-12.24,12.13-1.12,1.11-2.22,2.24-3.32,3.35-4.06,4.77-8.13,9.53-12.19,14.3-1.48,1.76-2.97,3.53-4.45,5.29-.45.5-.9,1-1.33,1.48-2.25,2.86-4.51,5.69-6.76,8.55-.74,1.25-1.42,2.55-2.25,3.72-3.43,4.83-6.9,9.62-10.35,14.41-.76,1.28-1.51,2.55-2.25,3.83-5.39,9.22-10.76,18.46-16.15,27.7-.29.5-.58.98-.88,1.48-1.06,2.38-2.13,4.75-3.21,7.13-1.19,2.7-2.36,5.41-3.55,8.13-.45.8-.9,1.59-1.33,2.4-.16.48-.32.96-.49,1.44-.29.63-.58,1.28-.88,1.92-.59,1.59-1.19,3.18-1.78,4.77-.14.48-.31.96-.45,1.44-.47,1.44-.94,2.86-1.41,4.29-1.46,4.96-2.92,9.91-4.42,14.87-.25.81-.59,1.59-.9,2.38-.43,2.22-.88,4.45-1.32,6.67-.14.63-.31,1.27-.45,1.92-.47,3.34-.94,6.67-1.39,10-.14.96-.27,1.92-.41,2.87v6.63s-.01,0-.02,0v-.02c-.02.17-.05.33-.05.5.29,3.68,3.64,5.75,6.76,4.31,2.92-1.35,2.26-4.22,2.65-6.67,0,0,.02,0,.02,0,.16-.46.34-.94.5-1.4.13-.33.27-.65.4-.98.74-5.1,1.5-10.2,2.24-15.3,0-.31.04-.63.05-.94.13-.33.25-.65.38-1,.45-1.92.9-3.81,1.33-5.73.18-.94.34-1.9.52-2.84,2.18-6.88,4.02-13.91,6.65-20.58,3.12-7.93,6.94-15.56,10.46-23.33.14-.33.31-.63.45-.96Z"/><path class="cls-3" d="m345.35,243.89c-1.48,1.97-2.68,4.02-1.68,6.74.25.43.52.86.77,1.29.55,1.01,1.11,2.02,1.66,3.03.47.72.93,1.41,1.41,2.13.68.98,1.34,1.97,2.02,2.97,5.77,10.96,11.04,22.14,14.69,34.08.75,2.46,4.05,4.28,6.02,3.67,2.18-.66,4.05-4.02,3.34-6.47-1.14-3.87-2.29-7.75-3.85-11.44-2.97-7.04-6.21-13.97-9.35-20.95v-.04c-2.3-3.86-4.51-7.81-7-11.55-1.1-1.67-2.77-2.95-4.19-4.38-1.28.3-2.58.61-3.86.92Z"/><path class="cls-3" d="m334.43,274.35c3.14,6.98-4.08-9.64-1.11-2.6.24.57.42,1.16.64,1.73.16.27.32.55.49.82v.04Z"/><path class="cls-3" d="m327.8,285.98c.75,2.46,4.05,4.28,6.02,3.67,2.18-.66,4.05-4.02,3.34-6.47-.97-3.27-1.99-6.54-3.21-9.71-2.13-3.6-4.21-7.25-6.52-10.73-1.1-1.67-2.77-2.95-4.19-4.38-1.28.3-2.58.61-3.86.92-1.48,1.97-2.68,4.02-1.68,6.74.25.43.52.86.77,1.29.55,1.01,1.11,2.02,1.66,3.03.47.72.93,1.41,1.41,2.13.68.98,1.34,1.97,2.02,2.97,1.8,3.43,2.54,4.57,2.8,4.9-.05.24.12,1.39,1.42,5.64Z"/><path class="cls-3" d="m290.31,344.46c3.98.64,7.98,1.28,11.98,1.46,7.63.35,15.28.42,22.93.59l.03.02c4.48-.42,9-.71,13.45-1.34,1.98-.27,3.85-1.23,5.76-1.89.28-1.29.56-2.59.84-3.88-1.14-2.18-2.48-4.15-5.36-4.42-.5.04-1,.1-1.5.14-1.15.06-2.3.13-3.45.2-.85.11-1.68.23-2.53.36-1.18.19-2.35.36-3.55.54-12.38.48-24.74.42-37.08-1.43-2.54-.38-5.61,1.82-5.91,3.85-.35,2.25,1.88,5.38,4.4,5.8Z"/><path class="cls-3" d="m373.54,347.57v-.02c-5.03,2.23-10.03,4.64-15.27,6.22-12.35,3.7-24.58,8-37.5,9.45-2.73.31-5.44.6-8.17.89-.57.17-4.1.43-5.3.5-9.72.66-19.38.75-29-2.03v.04c-1.32-.38-3.2.07-4.29.88-2.59,1.95-2.58,4.26-.44,7.89,3.45,1.16,6.91,2.29,10.36,3.44,1.28.13,2.57.25,3.84.36,1.81-.18,3.62-.35,5.42-.53,0,.01,0,.02.01.04,7.21-.25,14.45-.22,21.62-.86,6.37-.57,12.8-1.31,18.9-3.04,14.84-4.24,30-7.55,44.11-14.12,2.55-1.18,4.06-3.81,3.19-5.83-1.41-3.3-4.62-4.55-7.48-3.28Z"/><path class="cls-3" d="m408.02,323.75h.02c-.64-1.64-2.12-1.62-3.63-1.58-6.01.15-12.07.66-18.04.07-8.54-.83-17.04-2.52-25.56-3.83-.29.03-.56.05-.84.08,0,0-.01.02-.02.03-1.25-.48-2.47-1.06-3.75-1.46-9.03-2.87-18.25-5.16-27.04-8.7-10.06-4.04-19.74-9.26-29.63-13.8-1.45-.66-3.37-.83-4.91-.48-2.05.49-3.09,2.47-3.15,4.69-.06,2.37,1.26,3.93,3.19,5.06,12.77,7.4,26.19,13.13,39.97,17.86,5.9,2.03,11.95,3.51,17.95,5.24.59-.05,1.19-.11,1.76-.18,0-.01.01-.02.02-.03,3.07.84,6.12,1.99,9.24,2.43,7.06,1.03,14.15,1.97,21.25,2.47,6.28.44,12.62.3,18.91.16,1.34-.02,2.83-.95,3.9-1.89,1.94-1.75,1.14-4.1.36-6.13Z"/><path class="cls-3" d="m362.44,222.41c1.64,1.7,3.35,3.36,5.02,5.03.82,1.06,1.65,2.14,2.48,3.2,1.49,1.69,2.99,3.37,4.48,5.06.4.7.79,1.42,1.19,2.11.19.1.37.2.54.31,1.39,2.71,2.77,5.42,4.17,8.15l2.18,3.86c.42.83.94,1.63,1.28,2.5,2.45,5.93,4.88,11.85,7.31,17.79l.06.02c.15.96.3,1.9.45,2.86,2.7,7.49,3.87,15.29,4.98,23.1.44,3.18,2.08,5.11,4.44,5.01v.02c3.61-.14,5.44-2.36,4.81-6.16-.78-4.73-2.01-9.39-2.59-14.14-1-8.03-3.81-15.52-6.29-23.11-.26-.78-.8-1.45-1.21-2.18l-.06-.02c-.28-1.04-.59-2.09-.88-3.12-.05-.51-.11-1.03-.18-1.53-2.74-5.03-5.47-10.04-8.23-15.07l.05.04c-.61-1.09-1.31-2.13-1.97-3.21-1.66-2.26-3.35-4.51-4.97-6.78-.49-.69-.89-1.44-1.34-2.16-.54-.67-1.07-1.34-1.61-2.01-1.27-1.42-2.51-2.84-3.78-4.26-.33-.07-.64-.17-.97-.24-.3-.39-.62-.78-.92-1.17-.91-.87-1.83-1.76-2.75-2.63-.93-.86-1.85-1.71-2.78-2.57-1.64.2-3.3.4-4.95.58-.09.19-.19.41-.28.6-.52,1.34-1.05,2.69-1.57,4.03.3.91.6,1.82.89,2.71,1,1.14,1.97,2.3,3.01,3.39Z"/><rect class="cls-1" width="566.93" height="566.93"/></g></svg>